<svg xmlns="http://www.w3.org/2000/svg" xmlns:xlink="http://www.w3.org/1999/xlink" width="113" height="113" viewBox="0 0 113 113">
  <defs>
    <filter id="Path_982547" x="0" y="0" width="113" height="113" filterUnits="userSpaceOnUse">
      <feOffset dy="3" input="SourceAlpha"/>
      <feGaussianBlur stdDeviation="3" result="blur"/>
      <feFlood flood-opacity="0.161"/>
      <feComposite operator="in" in2="blur"/>
      <feComposite in="SourceGraphic"/>
    </filter>
  </defs>
  <g id="Group_1164470" data-name="Group 1164470" transform="translate(-592.5 -618)">
    <g id="Group_1164357" data-name="Group 1164357">
      <g id="Group_1164260" data-name="Group 1164260" transform="translate(4.5 -489)">
        <g id="Group_1164259" data-name="Group 1164259" transform="translate(1)">
          <g id="Group_1163949" data-name="Group 1163949" transform="translate(0 -1371)">
            <g id="Group_1161819" data-name="Group 1161819" transform="translate(596 2484)">
              <g id="Group_1152576" data-name="Group 1152576" transform="translate(0)">
                <g id="Group_1148633" data-name="Group 1148633">
                  <g id="Group_1148525" data-name="Group 1148525">
                    <g transform="matrix(1, 0, 0, 1, -9, -6)" filter="url(#Path_982547)">
                      <g id="Path_982547-2" data-name="Path 982547" transform="translate(9 6)" fill="#f4fdfe">
                        <path d="M 47.5 93.5 C 41.28937149047852 93.5 35.26533508300781 92.28397369384766 29.59518623352051 89.88570404052734 C 24.11771965026855 87.56893157958984 19.19813346862793 84.25196075439453 14.97309303283691 80.02691650390625 C 10.74804019927979 75.80186462402344 7.431066513061523 70.88229370117188 5.114293098449707 65.40481567382812 C 2.716026782989502 59.73468017578125 1.5 53.71062850952148 1.5 47.5 C 1.5 41.28937149047852 2.716026782989502 35.26533508300781 5.114293098449707 29.59518623352051 C 7.431066513061523 24.11771965026855 10.74804019927979 19.19813346862793 14.97309303283691 14.97309303283691 C 19.19813346862793 10.74804019927979 24.11771965026855 7.431066513061523 29.59518623352051 5.114293098449707 C 35.26533508300781 2.716026782989502 41.28937149047852 1.5 47.5 1.5 C 53.71062850952148 1.5 59.73468017578125 2.716026782989502 65.40481567382812 5.114293098449707 C 70.88229370117188 7.431066513061523 75.80186462402344 10.74804019927979 80.02691650390625 14.97309303283691 C 84.25196075439453 19.19813346862793 87.56893157958984 24.11771965026855 89.88570404052734 29.59518623352051 C 92.28397369384766 35.26533508300781 93.5 41.28937149047852 93.5 47.5 C 93.5 53.71062850952148 92.28397369384766 59.73468017578125 89.88570404052734 65.40481567382812 C 87.56893157958984 70.88229370117188 84.25196075439453 75.80186462402344 80.02691650390625 80.02691650390625 C 75.80186462402344 84.25196075439453 70.88229370117188 87.56893157958984 65.40481567382812 89.88570404052734 C 59.73468017578125 92.28397369384766 53.71062850952148 93.5 47.5 93.5 Z" stroke="none"/>
                        <path d="M 47.5 3 C 41.49121475219727 3 35.66376876831055 4.176155090332031 30.17950439453125 6.495796203613281 C 24.88084411621094 8.736953735351562 20.12152099609375 11.94598388671875 16.03375244140625 16.03375244140625 C 11.94598388671875 20.12152099609375 8.736953735351562 24.88084411621094 6.495796203613281 30.17950439453125 C 4.176155090332031 35.66376876831055 3 41.49121475219727 3 47.5 C 3 53.50878524780273 4.176155090332031 59.33623123168945 6.495796203613281 64.82049560546875 C 8.736953735351562 70.11915588378906 11.94598388671875 74.87847900390625 16.03375244140625 78.96624755859375 C 20.12152099609375 83.05401611328125 24.88084411621094 86.26304626464844 30.17950439453125 88.50419616699219 C 35.66376876831055 90.82384490966797 41.49121475219727 92 47.5 92 C 53.50878524780273 92 59.33623123168945 90.82384490966797 64.82049560546875 88.50419616699219 C 70.11915588378906 86.26304626464844 74.87847900390625 83.05401611328125 78.96624755859375 78.96624755859375 C 83.05401611328125 74.87847900390625 86.26304626464844 70.11915588378906 88.50419616699219 64.82049560546875 C 90.82384490966797 59.33623123168945 92 53.50878524780273 92 47.5 C 92 41.49121475219727 90.82384490966797 35.66376876831055 88.50419616699219 30.17950439453125 C 86.26304626464844 24.88084411621094 83.05401611328125 20.12152099609375 78.96624755859375 16.03375244140625 C 74.87847900390625 11.94598388671875 70.11915588378906 8.736953735351562 64.82049560546875 6.495796203613281 C 59.33623123168945 4.176155090332031 53.50878524780273 3 47.5 3 M 47.5 0 C 73.7335205078125 0 95 21.2664794921875 95 47.5 C 95 73.7335205078125 73.7335205078125 95 47.5 95 C 21.2664794921875 95 0 73.7335205078125 0 47.5 C 0 21.2664794921875 21.2664794921875 0 47.5 0 Z" stroke="none" fill="#56838a"/>
                      </g>
                    </g>
                  </g>
                </g>
              </g>
            </g>
          </g>
        </g>
      </g>
      <g id="transparency_18290514" transform="translate(589.205 609.245)">
        <g id="Group_1164356" data-name="Group 1164356" transform="translate(26.913 30.373)">
          <path id="Path_982597" data-name="Path 982597" d="M125.794,61.38h42.6a3.505,3.505,0,0,1,3.494,3.5V116.6a3.5,3.5,0,0,1-3.494,3.494h-42.6A3.507,3.507,0,0,1,122.3,116.6V64.879A3.508,3.508,0,0,1,125.794,61.38Z" transform="translate(-109.636 -57.839)" fill="#e3c49e" fill-rule="evenodd"/>
          <path id="Path_982598" data-name="Path 982598" d="M180.644,67.7a3.475,3.475,0,0,1,1.169,2.6v51.72a3.5,3.5,0,0,1-3.494,3.494h-42.6a3.506,3.506,0,0,1-1.856-.534c2.928-13.268,10.925-27.663,23.3-40.035A93.253,93.253,0,0,1,180.644,67.7Z" transform="translate(-119.558 -63.263)" fill="#ffe0b2" fill-rule="evenodd"/>
          <path id="Path_982599" data-name="Path 982599" d="M251.405,260.417l5.552-5.556-10.905-10.9-5.552,5.552Z" transform="translate(-211.087 -214.547)" fill="#0ab69f" fill-rule="evenodd"/>
          <path id="Path_982600" data-name="Path 982600" d="M270.885,257.657l2.792-2.8-10.905-10.9-2.792,2.792Z" transform="translate(-227.807 -214.547)" fill="#0ed2b3" fill-rule="evenodd"/>
          <path id="Path_982601" data-name="Path 982601" d="M39.392,42.852a22.055,22.055,0,1,1,0,31.19A22.05,22.05,0,0,1,39.392,42.852Z" transform="translate(-32.93 -36.39)" fill="#0ab69f" fill-rule="evenodd"/>
          <path id="Path_982602" data-name="Path 982602" d="M42.112,42.852A22.058,22.058,0,0,1,79.75,57.626,22.057,22.057,0,0,1,36.1,54.014,21.928,21.928,0,0,1,42.112,42.852Z" transform="translate(-35.651 -36.39)" fill="#0ed2b3" fill-rule="evenodd"/>
          <path id="Path_982603" data-name="Path 982603" d="M75.074,78.541a16.783,16.783,0,1,1,0,23.735A16.789,16.789,0,0,1,75.074,78.541Z" transform="translate(-64.884 -68.351)" fill="#c2c2f0" fill-rule="evenodd"/>
          <path id="Path_982604" data-name="Path 982604" d="M117.507,81.185a16.781,16.781,0,0,1-8.455,32.215,16.782,16.782,0,0,1,8.455-32.215Z" transform="translate(-89.215 -74.712)" fill="#edebfc" fill-rule="evenodd"/>
          <path id="Path_982605" data-name="Path 982605" d="M172.421,125.56a2.671,2.671,0,1,1-2.671,2.671A2.669,2.669,0,0,1,172.421,125.56Z" transform="translate(-150.362 -112.924)" fill="#fdcb0f" fill-rule="evenodd"/>
          <path id="Path_982606" data-name="Path 982606" d="M93.64,185.14h10.5C104.144,193.523,93.64,193.523,93.64,185.14Z" transform="translate(-85.037 -164.062)" fill="#fdcb0f" fill-rule="evenodd"/>
          <path id="Path_982607" data-name="Path 982607" d="M116.49,185.14h7.266c0,3.317-1.647,5.322-3.632,6.012-1.988-.69-3.635-2.694-3.635-6.012Z" transform="translate(-104.649 -164.062)" fill="#fde01b" fill-rule="evenodd"/>
          <path id="Path_982608" data-name="Path 982608" d="M209.41,185.14h10.507C219.917,193.523,209.41,193.523,209.41,185.14Z" transform="translate(-184.402 -164.062)" fill="#fdcb0f" fill-rule="evenodd"/>
          <path id="Path_982609" data-name="Path 982609" d="M232.28,185.14h7.267c0,3.317-1.647,5.322-3.635,6.012-1.988-.69-3.632-2.694-3.632-6.012Z" transform="translate(-204.032 -164.062)" fill="#fde01b" fill-rule="evenodd"/>
          <path id="Path_982610" data-name="Path 982610" d="M308.56,320.09l8.07-8.07L331.605,327a5.706,5.706,0,0,1-8.07,8.07Z" transform="translate(-269.503 -272.963)" fill="#0ab69f" fill-rule="evenodd"/>
          <path id="Path_982611" data-name="Path 982611" d="M322.45,318.126l6.1-6.106L343.527,327a5.71,5.71,0,0,1,1.615,4.78,5.919,5.919,0,0,1-.453.514,5.718,5.718,0,0,1-8.07,0Z" transform="translate(-281.424 -272.963)" fill="#0ed2b3" fill-rule="evenodd"/>
        </g>
        <path id="Path_982612" data-name="Path 982612" d="M44.565,87.515a.992.992,0,1,1,0-1.984H66.236a.992.992,0,0,1,0,1.984Zm0-6.877a.992.992,0,1,1,0-1.984H61.391a.992.992,0,1,1,0,1.984Zm29.4-39.577a.992.992,0,1,1,0-1.984H84.745a.992.992,0,0,1,0,1.984Zm0,23.14a.992.992,0,1,1,0-1.984H84.745a.992.992,0,0,1,0,1.984Zm1.338-7.711a.992.992,0,1,1,0-1.984h9.439a.992.992,0,0,1,0,1.984Zm0-7.713a.992.992,0,1,1,0-1.984h9.439a.992.992,0,0,1,0,1.984ZM65.268,76.8l.558-.558-4.407-4.41A23.1,23.1,0,0,1,40.568,73.9V89.13a2.515,2.515,0,0,0,2.5,2.507H78.7L65.267,78.2a1,1,0,0,1,0-1.4Zm7.516-7.516.558-.558a.994.994,0,0,1,1.4,0L88.176,82.164V37.413a2.515,2.515,0,0,0-2.5-2.507H63.947a23.061,23.061,0,0,1,4.427,29.969ZM90.161,84.192a6.686,6.686,0,0,1,1.506,4.245h0a6.7,6.7,0,0,1-10.938,5.182H43.072a4.5,4.5,0,0,1-4.486-4.491V73.01A23.053,23.053,0,1,1,61.259,32.923H85.673a4.5,4.5,0,0,1,4.486,4.491V84.192Zm-16.12-13.36L67.372,77.5,81.644,91.773a4.707,4.707,0,0,0,8.042-3.334h0A4.705,4.705,0,0,0,88.313,85.1ZM51.921,50.46h1l2.7-3.788H52.5a3.676,3.676,0,0,1-2.535,2.535v13.5h2.623a.992.992,0,1,1,0,1.984H45.357a.992.992,0,1,1,0-1.984h2.619v-13.5a3.67,3.67,0,0,1-2.531-2.535H42.316l2.7,3.788h1a1,1,0,0,1,.992.992c0,3.455-1.607,5.688-3.667,6.684a5.9,5.9,0,0,1-5.158,0c-2.056-1-3.667-3.229-3.667-6.684a.994.994,0,0,1,.992-.992h1l2.7-3.788h-1.41a.992.992,0,0,1,0-1.984h7.641a3.67,3.67,0,0,1,2.531-2.535v-1a.992.992,0,0,1,1.984,0v1A3.676,3.676,0,0,1,52.5,44.688h7.641a.992.992,0,0,1,0,1.984H58.723l2.708,3.788h1a.992.992,0,0,1,.992.992c0,3.455-1.607,5.688-3.663,6.684a5.9,5.9,0,0,1-5.158,0c-2.06-1-3.667-3.229-3.667-6.684a.992.992,0,0,1,.99-.992Zm3.431,0H59L57.175,47.9Zm6.025,1.984h-8.4C53.679,58.188,60.67,58.188,61.377,52.444ZM38.942,50.46H42.59L40.766,47.9Zm6.025,1.984h-8.4C37.272,58.188,44.261,58.188,44.968,52.444ZM50.157,44.5a1.677,1.677,0,1,0,0,2.369,1.678,1.678,0,0,0,0-2.369ZM36.4,39.859A17.773,17.773,0,1,1,36.4,65,17.77,17.77,0,0,1,36.4,39.859Zm1.4,1.407a15.789,15.789,0,1,0,22.329,0A15.79,15.79,0,0,0,37.806,41.266ZM67.212,66.519a23.538,23.538,0,0,1-4.149,4.153l4.169,4.166,4.149-4.149ZM48.968,31.364a21.065,21.065,0,1,0,14.9,6.17,21.065,21.065,0,0,0-14.9-6.17Z"/>
      </g>
    </g>
  </g>
</svg>
