<svg xmlns="http://www.w3.org/2000/svg" xmlns:xlink="http://www.w3.org/1999/xlink" width="108" height="108" viewBox="0 0 108 108">
  <defs>
    <filter id="Path_904820" x="0" y="0" width="108" height="108" filterUnits="userSpaceOnUse">
      <feOffset dy="3" input="SourceAlpha"/>
      <feGaussianBlur stdDeviation="3" result="blur"/>
      <feFlood flood-opacity="0.161"/>
      <feComposite operator="in" in2="blur"/>
      <feComposite in="SourceGraphic"/>
    </filter>
  </defs>
  <g id="Group_1164519" data-name="Group 1164519" transform="translate(-620 -3331.413)">
    <g id="Group_1164451" data-name="Group 1164451">
      <g id="Group_1164447" data-name="Group 1164447" transform="translate(1 -0.5)">
        <g id="Group_1164328" data-name="Group 1164328" transform="translate(628 3337.913)">
          <g id="Group_1164000" data-name="Group 1164000">
            <g id="Icono">
              <g transform="matrix(1, 0, 0, 1, -9, -6)" filter="url(#Path_904820)">
                <g id="Path_904820-2" data-name="Path 904820" transform="translate(9 6)" fill="#ebe9f0">
                  <path d="M 45 88.5 C 39.12687683105469 88.5 33.43022537231445 87.35007476806641 28.06830024719238 85.08217620849609 C 22.88852500915527 82.89131164550781 18.23629951477051 79.75458526611328 14.2408504486084 75.75914764404297 C 10.24541282653809 71.76370239257812 7.108687400817871 67.11147308349609 4.917825222015381 61.93170166015625 C 2.649924993515015 56.56977462768555 1.5 50.87312316894531 1.5 45 C 1.5 39.12687683105469 2.649924993515015 33.43022537231445 4.917825222015381 28.06830024719238 C 7.108687400817871 22.88852500915527 10.24541282653809 18.23629951477051 14.2408504486084 14.2408504486084 C 18.23629951477051 10.24541282653809 22.88852500915527 7.108687400817871 28.06830024719238 4.917825222015381 C 33.43022537231445 2.649924993515015 39.12687683105469 1.5 45 1.5 C 50.87312316894531 1.5 56.56977462768555 2.649924993515015 61.93170166015625 4.917825222015381 C 67.11147308349609 7.108687400817871 71.76370239257812 10.24541282653809 75.75914764404297 14.2408504486084 C 79.75458526611328 18.23629951477051 82.89131164550781 22.88852500915527 85.08217620849609 28.06830024719238 C 87.35007476806641 33.43022537231445 88.5 39.12687683105469 88.5 45 C 88.5 50.87312316894531 87.35007476806641 56.56977462768555 85.08217620849609 61.93170166015625 C 82.89131164550781 67.11147308349609 79.75458526611328 71.76370239257812 75.75914764404297 75.75914764404297 C 71.76370239257812 79.75458526611328 67.11147308349609 82.89131164550781 61.93170166015625 85.08217620849609 C 56.56977462768555 87.35007476806641 50.87312316894531 88.5 45 88.5 Z" stroke="none"/>
                  <path d="M 45 3 C 39.32871246337891 3 33.82865524291992 4.110054016113281 28.65262985229492 6.299339294433594 C 23.65165710449219 8.414573669433594 19.15968322753906 11.44334411621094 15.301513671875 15.301513671875 C 11.44334411621094 19.15968322753906 8.414573669433594 23.65165710449219 6.299339294433594 28.65262985229492 C 4.110054016113281 33.82865524291992 3 39.32871246337891 3 45 C 3 50.67128753662109 4.110054016113281 56.17134475708008 6.299339294433594 61.34737396240234 C 8.414573669433594 66.34834289550781 11.44334411621094 70.84031677246094 15.301513671875 74.698486328125 C 19.15968322753906 78.55665588378906 23.65165710449219 81.58542633056641 28.65262985229492 83.70066070556641 C 33.82865524291992 85.88994598388672 39.32871246337891 87 45 87 C 50.67128753662109 87 56.17134475708008 85.88994598388672 61.34737396240234 83.70066070556641 C 66.34834289550781 81.58542633056641 70.84031677246094 78.55665588378906 74.698486328125 74.698486328125 C 78.55665588378906 70.84031677246094 81.58542633056641 66.34834289550781 83.70066070556641 61.34737396240234 C 85.88994598388672 56.17134475708008 87 50.67128753662109 87 45 C 87 39.32871246337891 85.88994598388672 33.82865524291992 83.70066070556641 28.65262985229492 C 81.58542633056641 23.65165710449219 78.55665588378906 19.15968322753906 74.698486328125 15.301513671875 C 70.84031677246094 11.44334411621094 66.34834289550781 8.414573669433594 61.34737396240234 6.299339294433594 C 56.17134475708008 4.110054016113281 50.67128753662109 3 45 3 M 45 0 C 69.85281372070312 0 90 20.14718627929688 90 45 C 90 69.85281372070312 69.85281372070312 90 45 90 C 20.14718627929688 90 0 69.85281372070312 0 45 C 0 20.14718627929688 20.14718627929688 0 45 0 Z" stroke="none" fill="#453179"/>
                </g>
              </g>
            </g>
          </g>
        </g>
      </g>
      <g id="_x31_4_Legal_Document" transform="translate(638.351 3345.054)">
        <g id="Group_1164450" data-name="Group 1164450" transform="translate(7.121 9.067)">
          <path id="Path_982817" data-name="Path 982817" d="M102.677,17.923v6.606L100.63,66.746a4.6,4.6,0,0,1-2.61.8L68.253,58.7V17.923a1.075,1.075,0,0,1,1.078-1.078h32.277a1.073,1.073,0,0,1,1.069,1.078Z" transform="translate(-61.131 -15.939)" fill="#f9fafb"/>
          <path id="Path_982818" data-name="Path 982818" d="M73.977,384.936H44.99a4.672,4.672,0,0,1-4.658-4.667v-4.186H69.31v4.186a4.672,4.672,0,0,0,4.667,4.667Z" transform="translate(-36.463 -333.322)" fill="#add4f5"/>
          <path id="Path_982819" data-name="Path 982819" d="M65.713,412.971H44.99a4.672,4.672,0,0,1-4.658-4.667v-.489H65.613V412A4.823,4.823,0,0,0,65.713,412.971Z" transform="translate(-36.463 -361.357)" fill="#fff" opacity="0.4"/>
          <path id="Path_982820" data-name="Path 982820" d="M367.4,194.655V205.87h-5.074V194.612A38.037,38.037,0,0,0,367.4,194.655Z" transform="translate(-320.94 -172.994)" fill="#9e3004"/>
          <path id="Path_982821" data-name="Path 982821" d="M351.536,340.214h-7.213a27.769,27.769,0,0,1-.417-14.371c.118-.571.263-1.142.417-1.713h7.213A27.937,27.937,0,0,1,351.536,340.214Z" transform="translate(-304.009 -287.422)" fill="#9e3004"/>
          <path id="Path_982822" data-name="Path 982822" d="M348.374,353.2h-4.05a27.769,27.769,0,0,1-.417-14.371h4.023A27.741,27.741,0,0,1,348.374,353.2Z" transform="translate(-304.009 -300.409)" fill="#fff" opacity="0.4"/>
          <path id="Path_982823" data-name="Path 982823" d="M348.038,293.154a1.924,1.924,0,0,1-1.928,1.918H339a1.918,1.918,0,1,1,0-3.835h7.11A1.917,1.917,0,0,1,348.038,293.154Z" transform="translate(-298.638 -258.361)" fill="#fbc00b"/>
          <path id="Path_982824" data-name="Path 982824" d="M348.038,464.119a1.924,1.924,0,0,1-1.928,1.918H339a1.918,1.918,0,1,1,0-3.835h7.11A1.917,1.917,0,0,1,348.038,464.119Z" transform="translate(-298.638 -409.407)" fill="#fbc00b"/>
          <path id="Path_982825" data-name="Path 982825" d="M324.322,83.184V94.221a32.444,32.444,0,0,1-3.579.716c-.979.154-1.966.254-2.963.317a38,38,0,0,1-5.074-.036,42.866,42.866,0,0,1-6.542-1V83.184A38.8,38.8,0,0,1,324.322,83.184Z" transform="translate(-271.322 -73.597)" fill="#fbc00b"/>
          <path id="Path_982826" data-name="Path 982826" d="M320.744,113.912v8.173c-.979.154-1.966.254-2.963.317a37.995,37.995,0,0,1-5.074-.036,42.865,42.865,0,0,1-6.542-1v-8.137A38.569,38.569,0,0,1,320.744,113.912Z" transform="translate(-271.323 -100.746)" fill="#fff" opacity="0.4"/>
          <path id="Path_982827" data-name="Path 982827" d="M466.095,82.652v9.469a2.047,2.047,0,0,1-4.094,0V82.652a2.047,2.047,0,0,1,4.094,0Z" transform="translate(-409.003 -72.27)" fill="#9e3004"/>
          <path id="Path_982828" data-name="Path 982828" d="M275.158,82.652v9.469a2.047,2.047,0,1,1-4.094,0V82.652a2.047,2.047,0,0,1,4.094,0Z" transform="translate(-240.312 -72.27)" fill="#9e3004"/>
          <path id="Path_982829" data-name="Path 982829" d="M33.168,105.642c-.226.562-1.151.743-1.486,1.241s-.154,1.423-.58,1.839a1.4,1.4,0,0,1-.825.308,2.505,2.505,0,0,0-1.015.272,1.855,1.855,0,0,0-.5.625v.009a5.6,5.6,0,0,1-.326.516.009.009,0,0,0-.009.009,1.044,1.044,0,0,1-.4.326.59.59,0,0,1-.181.045c-.535.082-1.205-.335-1.74-.226-.462.091-.9.616-1.368.825a.854.854,0,0,1-.689,0c-.471-.208-.906-.734-1.368-.825-.589-.118-1.377.408-1.921.181-.562-.226-.743-1.16-1.241-1.486a2.46,2.46,0,0,0-1.006-.272,1.4,1.4,0,0,1-.834-.308c-.426-.417-.245-1.341-.58-1.839s-1.25-.68-1.477-1.241c-.226-.544.29-1.323.172-1.921-.118-.58-.9-1.1-.9-1.713s.779-1.133.9-1.713c.109-.526-.3-1.205-.218-1.74a.594.594,0,0,1,.045-.181.956.956,0,0,1,.326-.39.009.009,0,0,1,.009-.009c.154-.118.335-.218.507-.326a1.929,1.929,0,0,0,.643-.507c.326-.5.154-1.423.571-1.839s1.35-.245,1.849-.58.68-1.25,1.232-1.477,1.332.29,1.921.172,1.105-.9,1.713-.9,1.133.788,1.713.9c.6.118,1.368-.4,1.921-.172s.743,1.151,1.232,1.477,1.423.163,1.839.58.245,1.341.58,1.839,1.25.68,1.486,1.232c.218.553-.29,1.332-.172,1.921s.888,1.106.888,1.713-.779,1.133-.888,1.713C32.878,104.319,33.394,105.1,33.168,105.642Z" transform="translate(-13.994 -82.798)" fill="#fbc00b"/>
          <path id="Path_982830" data-name="Path 982830" d="M28.537,141.909c-.1.544.317,1.232.226,1.758v.009a.433.433,0,0,1-.045.154.96.96,0,0,1-.281.362.009.009,0,0,0-.009.009,5.292,5.292,0,0,1-.58.372c-.535.082-1.205-.335-1.74-.227-.462.091-.9.616-1.368.825a.854.854,0,0,1-.689,0c-.471-.208-.906-.734-1.368-.825-.589-.118-1.377.408-1.921.181-.562-.226-.743-1.16-1.241-1.486a2.459,2.459,0,0,0-1.006-.272,1.4,1.4,0,0,1-.834-.308c-.426-.417-.245-1.341-.58-1.839s-1.25-.68-1.477-1.241c-.226-.544.29-1.323.172-1.921-.118-.58-.9-1.1-.9-1.713s.779-1.133.9-1.713c.109-.526-.3-1.205-.218-1.74a4.423,4.423,0,0,1,.372-.571.009.009,0,0,1,.009-.009.873.873,0,0,1,.353-.281.5.5,0,0,1,.154-.045c.535-.091,1.232.326,1.767.218.58-.109,1.106-.9,1.713-.9s1.133.788,1.713.9,1.368-.4,1.921-.172.743,1.151,1.232,1.477,1.423.163,1.839.58.245,1.341.58,1.839,1.25.68,1.486,1.241c.218.544-.29,1.323-.181,1.912s.9,1.105.9,1.713S28.655,141.338,28.537,141.909Z" transform="translate(-13.994 -116.537)" fill="#fff" opacity="0.4"/>
          <path id="Path_982831" data-name="Path 982831" d="M29.281,236.658l-2.635,7.788a.4.4,0,0,1-.679.088L24.415,242.4a.4.4,0,0,0-.463-.129l-2.606,1a.361.361,0,0,1-.509-.41l2.9-8.59a2.555,2.555,0,0,1,1.013.264c.5.334.679,1.259,1.235,1.487s1.335-.293,1.926-.176c.463.088.9.615,1.364.82Z" transform="translate(-19.224 -208.026)" fill="#3773a6"/>
          <path id="Path_982832" data-name="Path 982832" d="M107.3,243.261l-2.606-1a.407.407,0,0,0-.468.129l-1.552,2.137a.392.392,0,0,1-.673-.088l-2.635-7.788c.468-.2.9-.732,1.364-.82.6-.117,1.376.4,1.926.176s.738-1.153,1.23-1.487a2.558,2.558,0,0,1,1.013-.264l2.91,8.59A.362.362,0,0,1,107.3,243.261Z" transform="translate(-88.621 -208.024)" fill="#3773a6"/>
          <path id="Path_982833" data-name="Path 982833" d="M71.195,144.972a3.829,3.829,0,1,1-3.824-3.835A3.821,3.821,0,0,1,71.195,144.972Z" transform="translate(-56.963 -125.75)" fill="#f9fafb"/>
          <g id="Group_1164449" data-name="Group 1164449" transform="translate(0 0)">
            <path id="Path_982834" data-name="Path 982834" d="M62.169,16.5a2.922,2.922,0,0,0-2.338,1.169,39.083,39.083,0,0,0-10.258-.942V11.052A1.99,1.99,0,0,0,47.59,9.067H15.322a1.985,1.985,0,0,0-1.985,1.985V18.8c-.725.435-.97,1.269-1.178,1.441-.281.154-1.323.018-1.985.689S9.631,22.641,9.5,22.9c-.2.236-1.223.516-1.577,1.4-.362.861.154,1.785.118,2.084-.082.308-.915.942-.915,1.894s.834,1.6.915,1.894c.045.29-.48,1.232-.118,2.084.362.9,1.359,1.151,1.559,1.4.154.272.027,1.314.689,1.985a1.563,1.563,0,0,0,.317.245L7.873,43.6A1.269,1.269,0,0,0,9.568,45.15l2.247-.861a16.36,16.36,0,0,0,1.522,2.039v4.594H10.991a.906.906,0,0,0-.906.906v4.186a5.584,5.584,0,0,0,5.564,5.573c30.292-.054,29.006.236,30.646-.5a.592.592,0,0,0,.036.118,2.821,2.821,0,0,0-1.643,2.947,2.915,2.915,0,0,0,2.931,2.454h6.843a2.927,2.927,0,0,0,2.946-2.46,2.824,2.824,0,0,0-1.653-2.941,30.13,30.13,0,0,0,.649-3.183.9.9,0,0,0-1.776-.238,27.79,27.79,0,0,1-.667,3.167H48.115a27.511,27.511,0,0,1,.018-14.272H53.96a27.117,27.117,0,0,1,.81,4.334.892.892,0,0,0,.885.813h.005a.9.9,0,0,0,.9-.978,28.891,28.891,0,0,0-.806-4.423,2.813,2.813,0,0,0,1.582-3.3,2.873,2.873,0,0,0-2.808-2.091h-.042V31.558a36.78,36.78,0,0,0,5.337-.861,2.94,2.94,0,0,0,3.1,1.081,3.017,3.017,0,0,0,2.19-2.953V19.451A2.953,2.953,0,0,0,62.169,16.5ZM9.6,31.6a6.072,6.072,0,0,0,.208-1.785A3.792,3.792,0,0,0,8.934,28.3a6.15,6.15,0,0,0,.879-1.559,4.019,4.019,0,0,0-.236-1.722A6.265,6.265,0,0,0,11,23.91a4.137,4.137,0,0,0,.426-1.676,5.825,5.825,0,0,0,1.731-.489A3.968,3.968,0,0,0,14.2,20.357a5.585,5.585,0,0,0,1.785.218A4.535,4.535,0,0,0,17.5,19.7a2.239,2.239,0,0,1,.426.281,2.767,2.767,0,0,0,1.133.6,4.019,4.019,0,0,0,1.722-.245,6.037,6.037,0,0,0,1.105,1.414,4.154,4.154,0,0,0,1.685.444,5.968,5.968,0,0,0,.489,1.731,3.629,3.629,0,0,0,1.386,1.033,6.368,6.368,0,0,0-.218,1.785,4.586,4.586,0,0,0,.888,1.513,5.97,5.97,0,0,0-.879,1.568,5.012,5.012,0,0,0,.208,1.749c-.272.245-.979.471-1.386,1.078a3.986,3.986,0,0,0-.435,1.685c-.254.136-1.1.054-1.74.489a4.032,4.032,0,0,0-1.033,1.386,5.551,5.551,0,0,0-1.785-.218,5.013,5.013,0,0,0-1.54.87,5.171,5.171,0,0,0-1.531-.87,3.715,3.715,0,0,0-1.731.245,2.374,2.374,0,0,1-.272-.417,2.942,2.942,0,0,0-.834-1.006,4.173,4.173,0,0,0-1.685-.435,5.878,5.878,0,0,0-.48-1.731A4.087,4.087,0,0,0,9.6,31.6ZM25.072,43.056l-1.559-.6a1.337,1.337,0,0,0-1.522.444l-.961,1.323-2.075-6.144c.507-.372.353-.372.951-.217a2.389,2.389,0,0,0,1.595.027,3.02,3.02,0,0,0,1.323-1.477Zm-12.024-.145a1.309,1.309,0,0,0-1.522-.453l-1.549.6,2.247-6.642c.29.417.562,1.169,1.314,1.477.852.353,1.858-.163,2.1-.127a3.125,3.125,0,0,1,.453.317l-2.084,6.153Zm2.6,16.863a3.767,3.767,0,0,1-3.751-3.76v-3.28H39.063v3.28a5.51,5.51,0,0,0,1.468,3.76Zm30.229-.516a3.719,3.719,0,0,1-1.522.489,3.74,3.74,0,0,1-3.48-3.733V51.828a.9.9,0,0,0-.906-.906H15.15v-4.73c.353-.4.127-.19,2.374-6.687l2.12,6.261a1.3,1.3,0,0,0,2.265.344l1.323-1.821,2.238.861a1.275,1.275,0,0,0,1.7-1.549l-2.619-7.72a1.563,1.563,0,0,0,.317-.245,2.426,2.426,0,0,0,.589-1.5,2.856,2.856,0,0,1,.091-.48,2.377,2.377,0,0,1,.417-.272,2.472,2.472,0,0,0,1.16-1.124c.372-.888-.163-1.776-.118-2.093.082-.3.906-.933.906-1.894s-.825-1.586-.906-1.885c-.045-.317.48-1.223.118-2.093-.372-.888-1.368-1.142-1.568-1.386-.154-.272-.018-1.314-.689-1.985s-1.7-.526-1.975-.689c-.245-.19-.516-1.205-1.386-1.568s-1.849.172-2.093.127c-.3-.091-.951-.915-1.894-.915-.961,0-1.577.815-1.885.915a2.111,2.111,0,0,1-.489-.091V11.052a.172.172,0,0,1,.172-.172H47.6a.17.17,0,0,1,.163.172v5.781a41.4,41.4,0,0,0-5.5.834,2.943,2.943,0,0,0-5.292,1.785v9.469a2.96,2.96,0,0,0,2.954,2.954,2.93,2.93,0,0,0,2.347-1.187,45.284,45.284,0,0,0,5.328.825v9.524h-.118a2.822,2.822,0,0,0-1.142,5.4,29.918,29.918,0,0,0-.462,12.822ZM41.056,19.451v9.469a1.137,1.137,0,1,1-2.275,0V19.451a1.137,1.137,0,1,1,2.274,0Zm6.425,43.314h7.113a1.01,1.01,0,0,1,1.024,1.015,1.027,1.027,0,0,1-1.024,1.015H47.481a1.015,1.015,0,0,1,0-2.03Zm7.113-19.917a1.01,1.01,0,1,1,0,2.021H47.481a1.01,1.01,0,0,1,0-2.021Zm-5.183-1.812V31.648c.97.045,2.528.054,3.262.027v9.36Zm9.8-12.052a37.13,37.13,0,0,1-16.347-.018V19.379a38.107,38.107,0,0,1,16.347-.009Zm4.087-.063a1.137,1.137,0,1,1-2.274,0V19.451a1.137,1.137,0,1,1,2.274,0Z" transform="translate(-7.121 -9.067)" fill="#252a50"/>
            <path id="Path_982835" data-name="Path 982835" d="M60.5,142.832a4.736,4.736,0,1,0-4.741-4.73A4.735,4.735,0,0,0,60.5,142.832Zm0-7.659a2.923,2.923,0,1,1-2.929,2.929A2.927,2.927,0,0,1,60.5,135.173Z" transform="translate(-50.095 -118.88)" fill="#252a50"/>
            <path id="Path_982836" data-name="Path 982836" d="M199.849,238.025a.906.906,0,0,0,.906.906h11.484a.906.906,0,0,0,0-1.812H200.755A.906.906,0,0,0,199.849,238.025Z" transform="translate(-177.394 -210.549)" fill="#252a50"/>
            <path id="Path_982837" data-name="Path 982837" d="M200.756,198.115h3.763a.906.906,0,1,0,0-1.812h-3.763a.906.906,0,1,0,0,1.812Z" transform="translate(-177.395 -174.488)" fill="#252a50"/>
            <path id="Path_982838" data-name="Path 982838" d="M200.756,157.3h3.763a.906.906,0,1,0,0-1.812h-3.763a.906.906,0,1,0,0,1.812Z" transform="translate(-177.395 -138.428)" fill="#252a50"/>
            <path id="Path_982839" data-name="Path 982839" d="M200.756,116.483h3.763a.906.906,0,0,0,0-1.812h-3.763a.906.906,0,0,0,0,1.812Z" transform="translate(-177.395 -102.367)" fill="#252a50"/>
            <path id="Path_982840" data-name="Path 982840" d="M200.756,75.666h3.763a.906.906,0,1,0,0-1.812h-3.763a.906.906,0,1,0,0,1.812Z" transform="translate(-177.395 -66.306)" fill="#252a50"/>
            <path id="Path_982841" data-name="Path 982841" d="M212.239,277.935H200.755a.906.906,0,1,0,0,1.812h11.484a.906.906,0,1,0,0-1.812Z" transform="translate(-177.394 -246.609)" fill="#252a50"/>
            <path id="Path_982842" data-name="Path 982842" d="M212.239,318.751H200.755a.906.906,0,0,0,0,1.812h11.484a.906.906,0,0,0,0-1.812Z" transform="translate(-177.394 -282.67)" fill="#252a50"/>
            <path id="Path_982843" data-name="Path 982843" d="M94.272,39.8c25.879-.386,27.184.831,27.184-.906a.906.906,0,0,0-.906-.906H94.272a.906.906,0,0,0,0,1.812Z" transform="translate(-83.318 -34.62)" fill="#252a50"/>
          </g>
        </g>
      </g>
    </g>
  </g>
</svg>
