<svg xmlns="http://www.w3.org/2000/svg" xmlns:xlink="http://www.w3.org/1999/xlink" width="103" height="103" viewBox="0 0 103 103">
  <defs>
    <filter id="Path_978624" x="0" y="0" width="103" height="103" filterUnits="userSpaceOnUse">
      <feOffset dy="3" input="SourceAlpha"/>
      <feGaussianBlur stdDeviation="3" result="blur"/>
      <feFlood flood-opacity="0.161"/>
      <feComposite operator="in" in2="blur"/>
      <feComposite in="SourceGraphic"/>
    </filter>
  </defs>
  <g id="Group_1164508" data-name="Group 1164508" transform="translate(-195 -3961)">
    <g id="Group_1164443" data-name="Group 1164443">
      <g id="Group_1164323" data-name="Group 1164323" transform="translate(204 3967)">
        <g transform="matrix(1, 0, 0, 1, -9, -6)" filter="url(#Path_978624)">
          <g id="Path_978624-2" data-name="Path 978624" transform="translate(9 6)" fill="#f4fdfe">
            <path d="M 42.5 83.5 C 36.96437835693359 83.5 31.59512901306152 82.41617584228516 26.54141235351562 80.27863311767578 C 21.65934181213379 78.21369171142578 17.27447128295898 75.25723266601562 13.50862312316895 71.49137878417969 C 9.742764472961426 67.72553253173828 6.786305904388428 63.34066009521484 4.721364498138428 58.45858764648438 C 2.583823442459106 53.40486907958984 1.5 48.03562164306641 1.5 42.5 C 1.5 36.96437835693359 2.583823442459106 31.59512901306152 4.721364498138428 26.54141235351562 C 6.786305904388428 21.65934181213379 9.742764472961426 17.27447128295898 13.50862312316895 13.50862312316895 C 17.27447128295898 9.742764472961426 21.65934181213379 6.786305904388428 26.54141235351562 4.721364498138428 C 31.59512901306152 2.583823442459106 36.96437835693359 1.5 42.5 1.5 C 48.03562164306641 1.5 53.40486907958984 2.583823442459106 58.45858764648438 4.721364498138428 C 63.34066009521484 6.786305904388428 67.72553253173828 9.742764472961426 71.49137878417969 13.50862312316895 C 75.25723266601562 17.27447128295898 78.21369171142578 21.65934181213379 80.27863311767578 26.54141235351562 C 82.41617584228516 31.59512901306152 83.5 36.96437835693359 83.5 42.5 C 83.5 48.03562164306641 82.41617584228516 53.40486907958984 80.27863311767578 58.45858764648438 C 78.21369171142578 63.34066009521484 75.25723266601562 67.72553253173828 71.49137878417969 71.49137878417969 C 67.72553253173828 75.25723266601562 63.34066009521484 78.21369171142578 58.45858764648438 80.27863311767578 C 53.40486907958984 82.41617584228516 48.03562164306641 83.5 42.5 83.5 Z" stroke="none"/>
            <path d="M 42.5 3 C 37.16621398925781 3 31.99356079101562 4.043960571289062 27.125732421875 6.102882385253906 C 22.42246627807617 8.092185974121094 18.19785308837891 10.94070434570312 14.56928253173828 14.56928253173828 C 10.94070434570312 18.19785308837891 8.092185974121094 22.42246627807617 6.102882385253906 27.125732421875 C 4.043960571289062 31.99356079101562 3 37.16621398925781 3 42.5 C 3 47.83378601074219 4.043960571289062 53.00643920898438 6.102882385253906 57.87425231933594 C 8.092185974121094 62.57753372192383 10.94070434570312 66.80213165283203 14.56928253173828 70.43071746826172 C 18.19786834716797 74.05929565429688 22.42246627807617 76.90781402587891 27.125732421875 78.89711761474609 C 31.99356079101562 80.95603942871094 37.16621398925781 82 42.5 82 C 47.83378601074219 82 53.00642395019531 80.95603942871094 57.87425231933594 78.89711761474609 C 62.57753372192383 76.90781402587891 66.80213165283203 74.05929565429688 70.43071746826172 70.43071746826172 C 74.05929565429688 66.80213165283203 76.90781402587891 62.57753372192383 78.89711761474609 57.87425231933594 C 80.95603942871094 53.00642395019531 82 47.83378601074219 82 42.5 C 82 37.16621398925781 80.95603942871094 31.99356079101562 78.89711761474609 27.125732421875 C 76.90781402587891 22.42246627807617 74.05929565429688 18.19786834716797 70.43071746826172 14.56928253173828 C 66.80213165283203 10.94070434570312 62.57753372192383 8.092185974121094 57.87425231933594 6.102882385253906 C 53.00643920898438 4.043960571289062 47.83378601074219 3 42.5 3 M 42.5 0 C 65.97209167480469 0 85 19.02789306640625 85 42.5 C 85 65.97209167480469 65.97209167480469 85 42.5 85 C 19.02789306640625 85 0 65.97209167480469 0 42.5 C 0 19.02789306640625 19.02789306640625 0 42.5 0 Z" stroke="none" fill="#56838a"/>
          </g>
        </g>
      </g>
      <g id="think-question_14781835" transform="translate(215.418 3977.073)">
        <g id="Group_1164436" data-name="Group 1164436" transform="translate(7.505 7.5)">
          <path id="Path_982763" data-name="Path 982763" d="M35.407,356.682l-1.4-.589c-4.323-2.1-3.7-2.254-2.371-6.248,1.547-1.055,3.479-1.364,5.267-1.828.72-.187,3.515-.992,4.048-1.1l1.987-.791a2.506,2.506,0,0,0,.276-1.382V340.2l8.194,3.243v1.3a2.113,2.113,0,0,0,.4,1.238l6.41,1.037a48.662,48.662,0,0,1,6.962,1.66l3.25,1.033L64.1,355l-8.1,1.686Z" transform="translate(-28.33 -306.829)" fill="#bbf49b"/>
          <path id="Path_982764" data-name="Path 982764" d="M387.228,442.364a7.967,7.967,0,0,0-3.19-6.446c-.038-.027-.076-.054-.115-.079a37.558,37.558,0,0,0-2.616,3.1S387.228,442.985,387.228,442.364Z" transform="translate(-343.817 -392.875)" fill="#9be69d"/>
          <path id="Path_982765" data-name="Path 982765" d="M14.626,442.913v.275H7.851a.3.3,0,0,1-.3-.313,8.206,8.206,0,0,1,3.19-6.446c.038-.027.076-.054.115-.079C12.528,438.222,14.485,440.274,14.626,442.913Z" transform="translate(-7.549 -393.334)" fill="#9be69d"/>
          <path id="Path_982766" data-name="Path 982766" d="M24.612,215.146c0,3.75-3.721,7.254-7.487,7.254-1.444,0-3.525,0-5.548-3.3a6.817,6.817,0,0,1,10.478-7.32C22.2,212.337,24.612,214.544,24.612,215.146Z" transform="translate(-10.969 -190.201)" fill="#ffd15b"/>
          <path id="Path_982767" data-name="Path 982767" d="M27.017,228.229A6.821,6.821,0,0,1,13.61,229.97a6.806,6.806,0,0,0,10.478-7.32A6.776,6.776,0,0,1,27.017,228.229Z" transform="translate(-13.002 -201.069)" fill="#ffc344"/>
          <path id="Path_982768" data-name="Path 982768" d="M258.842,216.025c0,3.75-1.175,6.443-7.33,6.723-1.6.072-4.073-2.115-4.926-3.646a6.817,6.817,0,0,1,10.478-7.32A8.592,8.592,0,0,1,258.842,216.025Z" transform="translate(-222.406 -190.201)" fill="#ffd15b"/>
          <path id="Path_982769" data-name="Path 982769" d="M262.028,228.229a6.821,6.821,0,0,1-13.408,1.741,6.806,6.806,0,0,0,10.478-7.32A6.774,6.774,0,0,1,262.028,228.229Z" transform="translate(-224.44 -201.069)" fill="#ffc344"/>
          <path id="Path_982770" data-name="Path 982770" d="M84.156,16.953c0,5.729-.94,12.934-8.527,11.152L61.5,27.766V21.6A13.539,13.539,0,0,1,74.316,8.11l.581.428.924-.428a13.407,13.407,0,0,1,6.11,1.857C85.195,13.877,84.156,15.61,84.156,16.953Z" transform="translate(-56.088 -8.049)" fill="#ffe177"/>
          <path id="Path_982771" data-name="Path 982771" d="M215.368,38.388v6.683l-13.008-.313a18.463,18.463,0,0,0,6.3-18.138A13.681,13.681,0,0,1,215.368,38.388Z" transform="translate(-182.82 -24.702)" fill="#ffd15b"/>
          <path id="Path_982772" data-name="Path 982772" d="M69.848,192.633a5.548,5.548,0,0,0,4.24-5.383h0a2.209,2.209,0,0,0-2.213-2.2H45.549a2.209,2.209,0,0,0-2.213,2.2h0a5.547,5.547,0,0,0,4.24,5.383Z" transform="translate(-39.746 -167.236)" fill="#ca6e59"/>
          <path id="Path_982773" data-name="Path 982773" d="M101.648,103.4l4.041-3.785a7.833,7.833,0,0,0,2.214-5.456V87.611a1.429,1.429,0,0,1-1.357-.974l-.847-2.53a7.494,7.494,0,0,0-3.264-4.055l-5.53-3.261a.3.3,0,0,0-.306,0l-5.486,3.233a7.5,7.5,0,0,0-3.309,4.083l-.847,2.53a1.429,1.429,0,0,1-1.357.974v6.551A7.842,7.842,0,0,0,88.1,99.9l3.76,3.508a7.16,7.16,0,0,0,4.9,1.926c.356,0,2.834.214,3.186.161Z" transform="translate(-77.773 -69.803)" fill="#d78878"/>
          <g id="Group_1164434" data-name="Group 1164434" transform="translate(9.634 29.363)">
            <path id="Path_982774" data-name="Path 982774" d="M121.934,312.436l-.371.457-4.038,4.983-1.444-.915a6.767,6.767,0,0,0-3.367-1.056,5.563,5.563,0,0,1-2.755-.861l-3.574-2.27a1.263,1.263,0,0,1-.588-1.068c0-.014,0-.028,0-.042s.18-.365.27-.537a4.8,4.8,0,0,1,.635-.382c.179.1.662-.355,1.05-.108l-.812-.516a1.262,1.262,0,0,1-.588-1.068.227.227,0,0,1,0-.04c.039-.209.539-.278.629-.45.017-.034-.028-.045.149-.132,0,0,.787-.692,1.176-.445l-.519-.33a1.264,1.264,0,0,1-.589-1.07c0-.014,0-.028,0-.042.006-.183.279-.293.368-.464a1.6,1.6,0,0,1,.425-.376s.773-.432,1.162-.185l-4.967-3.155a1.262,1.262,0,0,1-.447-1.648c.5-.449.819-.562,1.029-.429l8,5.29c2.394,1.282,3.4.318,3.406.311.017-.082.286-.534.3-.612a1.509,1.509,0,0,0,.162-.424.157.157,0,0,0,0-.023c.047-.226.1-.433.148-.627a6.35,6.35,0,0,1,1.094-2.253,2.793,2.793,0,0,1,.5-.55,1.9,1.9,0,0,1,.522-.288,3.786,3.786,0,0,1,1.16.079c.06.038-.752,2.927-.708,3.411,0,0,.137,3.837.161,4.122a2.929,2.929,0,0,0,1.61,2.536Z" transform="translate(-103.6 -300.234)" fill="#ca6e59"/>
          </g>
          <path id="Path_982775" data-name="Path 982775" d="M253.919,418.238H242.5l-4.552-2.848,4.022-6.771L256,417.684C256.257,417.845,254.217,418.234,253.919,418.238Z" transform="translate(-214.84 -368.385)" fill="#9be69d"/>
          <path id="Path_982776" data-name="Path 982776" d="M289.636,414.3h-3.309a.3.3,0,0,0,.159-.555l-12.515-8,.955-1.507,14.872,9.5A.3.3,0,0,1,289.636,414.3Z" transform="translate(-247.247 -364.445)" fill="#6fd7a3"/>
          <path id="Path_982777" data-name="Path 982777" d="M226.172,399.506l-4.321,5.795a.884.884,0,0,1-1.23.181l-1.5-1.11a.876.876,0,0,1-.182-1.226l4.289-5.75c.559-.455,1.2-1.2,1.484-.988l1.609,1.192C226.589,397.8,226.688,398.655,226.172,399.506Z" transform="translate(-197.582 -357.364)" fill="#eaf6ff"/>
          <path id="Path_982778" data-name="Path 982778" d="M267.017,394.122l-.825,1.106a.961.961,0,0,0-.4-.8l-1.609-1.192a.958.958,0,0,0-.938-.124l.858-1.149a.882.882,0,0,1,1.229-.181l1.5,1.109A.877.877,0,0,1,267.017,394.122Z" transform="translate(-237.602 -353.086)" fill="#d8ecfe"/>
          <g id="Group_1164435" data-name="Group 1164435" transform="translate(26.963 0)">
            <path id="Path_982779" data-name="Path 982779" d="M426.542,270.527c0,1.117-1.341,1.61-2.461,1.61-.53,0-.943-.529-1.313-1.066a2.093,2.093,0,0,1-.048-.451A2.17,2.17,0,0,1,426,268.764,2.749,2.749,0,0,1,426.542,270.527Z" transform="translate(-408.039 -242.285)" fill="#eaf6ff"/>
            <path id="Path_982780" data-name="Path 982780" d="M427.489,273.346a2.169,2.169,0,0,1-4.289.451,2.031,2.031,0,0,0,3.4-1.49,2,2,0,0,0-.174-.817A2.154,2.154,0,0,1,427.489,273.346Z" transform="translate(-408.471 -245.011)" fill="#d8ecfe"/>
            <path id="Path_982781" data-name="Path 982781" d="M294.69,9.828c-.09-.01-.182-.016-.274-.02a.311.311,0,0,1-.241-.13c-.089-.126-.185-.249-.286-.366a5.19,5.19,0,0,0-6.071-1.354.308.308,0,0,1-.274-.01,3.788,3.788,0,0,0-5.39,2.173.3.3,0,0,1-.282.208,4.626,4.626,0,0,0-4.125,6.744.3.3,0,0,1-.093.392,2.954,2.954,0,0,0-.3,4.646.3.3,0,0,1,.092.281,4.27,4.27,0,0,0,.084,1.894c2,2.6,6.028,3.269,8.307,3.269,6.521,0,10.64-3.37,10.64-9.89C296.472,16.1,296.472,11.891,294.69,9.828Z" transform="translate(-276.36 -7.5)" fill="#eaf6ff"/>
            <path id="Path_982782" data-name="Path 982782" d="M400.889,333.382a1.438,1.438,0,0,1-1.541,1.285c-.408,0-.736-.207-1.164-.908a1.577,1.577,0,0,1,2.253-1.621A1.743,1.743,0,0,1,400.889,333.382Z" transform="translate(-385.952 -299.433)" fill="#eaf6ff"/>
            <path id="Path_982783" data-name="Path 982783" d="M401.448,334.972a1.576,1.576,0,0,1-3.137.209,1.4,1.4,0,0,0,2.43-.941,1.38,1.38,0,0,0-.178-.68A1.57,1.57,0,0,1,401.448,334.972Z" transform="translate(-386.078 -300.855)" fill="#d8ecfe"/>
            <path id="Path_982784" data-name="Path 982784" d="M309.156,40.459a.3.3,0,0,0-.017.307,4.618,4.618,0,0,1-1.868,6.27c-.039.021-.107.055-.171.086a.3.3,0,0,0-.167.238,4.076,4.076,0,0,1-.144.771,0,0,0,0,0,0,0,4.054,4.054,0,0,1-5.682,2.489.3.3,0,0,0-.337.053,4.892,4.892,0,0,1-8.082-2.118.3.3,0,0,0-.3-.213,4.341,4.341,0,0,1-4.4-3.178,11.81,11.81,0,0,0,17.164-14.457,4.164,4.164,0,0,1,3.527,5.447.3.3,0,0,0,.077.306,3.114,3.114,0,0,1,.407,4Z" transform="translate(-286.815 -28.383)" fill="#d8ecfe"/>
            <path id="Path_982785" data-name="Path 982785" d="M337.561,59.77c-1.041,8.316-5.4,8.2-9.209,8.2a7.037,7.037,0,1,1,9.209-8.2Z" transform="translate(-318.88 -49.606)" fill="#73788c"/>
            <path id="Path_982786" data-name="Path 982786" d="M380.183,110.392a7.065,7.065,0,0,1-9.383,6.64,11.819,11.819,0,0,0,9.209-8.2A7.031,7.031,0,0,1,380.183,110.392Z" transform="translate(-361.327 -98.666)" fill="#5e6577"/>
          </g>
        </g>
        <g id="Group_1164442" data-name="Group 1164442" transform="translate(7.5 7.5)">
          <g id="Group_1164437" data-name="Group 1164437" transform="translate(0 40.294)">
            <path id="Path_982787" data-name="Path 982787" d="M7.5,418.527a7.812,7.812,0,0,1,3.194-6.511c1.566-1.118,3.551-1.432,5.383-1.906.552-.143,2.214-.6,3.284-.894" transform="translate(-7.5 -409.216)" fill="none" stroke="#000" stroke-linecap="round" stroke-linejoin="round" stroke-miterlimit="10" stroke-width="1.5"/>
          </g>
          <g id="Group_1164439" data-name="Group 1164439" transform="translate(29.713 40.183)">
            <g id="Group_1164438" data-name="Group 1164438" transform="translate(0 0)">
              <path id="Path_982788" data-name="Path 982788" d="M317.3,417.529a7.812,7.812,0,0,0-3.194-6.511c-1.566-1.119-3.551-1.432-5.383-1.906-.552-.143-3.926-.715-5-1.006" transform="translate(-303.724 -408.106)" fill="none" stroke="#000" stroke-linecap="round" stroke-linejoin="round" stroke-miterlimit="10" stroke-width="1.5"/>
            </g>
            <path id="Path_982789" data-name="Path 982789" d="M384.108,436.341a27.65,27.65,0,0,0-2.447,2.972" transform="translate(-373.844 -433.509)" fill="none" stroke="#000" stroke-linecap="round" stroke-linejoin="round" stroke-miterlimit="10" stroke-width="1.5"/>
          </g>
          <path id="Path_982790" data-name="Path 982790" d="M40.487,436.341c1.674,1.872,3.632,3.924,3.774,6.564" transform="translate(-37.178 -393.326)" fill="none" stroke="#000" stroke-linecap="round" stroke-linejoin="round" stroke-miterlimit="10" stroke-width="1.5"/>
          <g id="Group_1164440" data-name="Group 1164440" transform="translate(0.386 21.332)">
            <path id="Path_982791" data-name="Path 982791" d="M22.461,231.268a6.8,6.8,0,1,1-7.8-11.1" transform="translate(-11.346 -220.17)" fill="none" stroke="#000" stroke-linecap="round" stroke-linejoin="round" stroke-miterlimit="10" stroke-width="1.5"/>
            <path id="Path_982792" data-name="Path 982792" d="M275.464,329.142A6.846,6.846,0,0,1,268.1,327.9" transform="translate(-242.346 -317.091)" fill="none" stroke="#000" stroke-linecap="round" stroke-linejoin="round" stroke-miterlimit="10" stroke-width="1.5"/>
            <path id="Path_982793" data-name="Path 982793" d="M369.361,243.429a6.772,6.772,0,0,1-.362,7.528" transform="translate(-333.125 -241.096)" fill="none" stroke="#000" stroke-linecap="round" stroke-linejoin="round" stroke-miterlimit="10" stroke-width="1.5"/>
          </g>
          <path id="Path_982794" data-name="Path 982794" d="M64.989,12.373a13.548,13.548,0,0,1,19.972-.153M61.5,25.668V21.42a13.416,13.416,0,0,1,1.488-6.159" transform="translate(-56.084 -7.863)" fill="none" stroke="#000" stroke-linecap="round" stroke-linejoin="round" stroke-miterlimit="10" stroke-width="1.5"/>
          <line id="Line_634" data-name="Line 634" y1="6.43" transform="translate(18.985 0.307)" fill="none" stroke="#000" stroke-linecap="round" stroke-linejoin="round" stroke-miterlimit="10" stroke-width="1.5"/>
          <path id="Path_982795" data-name="Path 982795" d="M47.576,192.633a5.548,5.548,0,0,1-4.24-5.383h0a2.209,2.209,0,0,1,2.213-2.2h2.027" transform="translate(-39.741 -167.236)" fill="none" stroke="#000" stroke-linecap="round" stroke-linejoin="round" stroke-miterlimit="10" stroke-width="1.5"/>
          <path id="Path_982796" data-name="Path 982796" d="M311.434,228.916a5.569,5.569,0,0,1-3.786,3.188" transform="translate(-277.542 -206.707)" fill="none" stroke="#000" stroke-linecap="round" stroke-linejoin="round" stroke-miterlimit="10" stroke-width="1.5"/>
          <path id="Path_982797" data-name="Path 982797" d="M104.679,81.677a7.5,7.5,0,0,0-2.243-2.06l-5.683-3.351-5.638,3.323a7.5,7.5,0,0,0-3.309,4.083l-.847,2.53a1.429,1.429,0,0,1-1.357.974v6.551a7.84,7.84,0,0,0,2,5.227" transform="translate(-77.768 -69.368)" fill="none" stroke="#000" stroke-linecap="round" stroke-linejoin="round" stroke-miterlimit="10" stroke-width="1.5"/>
          <path id="Path_982798" data-name="Path 982798" d="M273.731,213.176l1.217-1.14a7.832,7.832,0,0,0,2.214-5.456V201.7" transform="translate(-247.027 -182.221)" fill="none" stroke="#000" stroke-linecap="round" stroke-linejoin="round" stroke-miterlimit="10" stroke-width="1.5"/>
          <path id="Path_982799" data-name="Path 982799" d="M188.275,254.916a2.369,2.369,0,0,1-2.143,0" transform="translate(-168.214 -230.099)" fill="none" stroke="#000" stroke-linecap="round" stroke-linejoin="round" stroke-miterlimit="10" stroke-width="1.5"/>
          <line id="Line_635" data-name="Line 635" x1="4.091" transform="translate(16.944 28.876)" fill="none" stroke="#000" stroke-linecap="round" stroke-linejoin="round" stroke-miterlimit="10" stroke-width="1.5"/>
          <path id="Path_982800" data-name="Path 982800" d="M136.355,159.26a4.087,4.087,0,0,0-3.92,0" transform="translate(-119.903 -143.587)" fill="none" stroke="#000" stroke-linecap="round" stroke-linejoin="round" stroke-miterlimit="10" stroke-width="1.5"/>
          <path id="Path_982801" data-name="Path 982801" d="M222.112,172.3a4.087,4.087,0,0,0,3.92,0" transform="translate(-200.585 -155.769)" fill="none" stroke="#000" stroke-linecap="round" stroke-linejoin="round" stroke-miterlimit="10" stroke-width="1.5"/>
          <line id="Line_636" data-name="Line 636" y1="1.732" transform="translate(23.487 19.717)" fill="none" stroke="#000" stroke-linecap="round" stroke-linejoin="round" stroke-miterlimit="10" stroke-width="1.5"/>
          <line id="Line_637" data-name="Line 637" y1="1.732" transform="translate(14.492 19.717)" fill="none" stroke="#000" stroke-linecap="round" stroke-linejoin="round" stroke-miterlimit="10" stroke-width="1.5"/>
          <path id="Path_982802" data-name="Path 982802" d="M120.247,308.049a4.023,4.023,0,0,1-.33-2.189,7.648,7.648,0,0,0-.007-1.8l-.149-1.655a2.494,2.494,0,0,1,.281-1.395l.495-.933a.5.5,0,0,0-.046-.541.588.588,0,0,0-.155-.134,1.687,1.687,0,0,0-1.952.141,2.8,2.8,0,0,0-.5.55,6.614,6.614,0,0,0-1.242,2.879l-.005.023a1.525,1.525,0,0,1-2.309.947l-8.775-5.572a1.275,1.275,0,0,0-1.756.388h0a1.264,1.264,0,0,0,.389,1.749l7.1,4.505-2.128-1.352a1.275,1.275,0,0,0-1.756.388h0a1.264,1.264,0,0,0,.389,1.75l.52.33,1.609,1.022-1.609-1.022a1.275,1.275,0,0,0-1.756.388h0a1.264,1.264,0,0,0,.389,1.749l.812.516,1.09.692-1.09-.692a1.275,1.275,0,0,0-1.756.388h0a1.265,1.265,0,0,0,.388,1.75l3.574,2.269a5.555,5.555,0,0,0,2.755.861h0a6.763,6.763,0,0,1,2.584.627" transform="translate(-93.961 -269.019)" fill="none" stroke="#000" stroke-linecap="round" stroke-linejoin="round" stroke-miterlimit="10" stroke-width="1.5"/>
          <line id="Line_638" data-name="Line 638" x2="7.098" y2="4.463" transform="translate(36.187 45.142)" fill="none" stroke="#000" stroke-linecap="round" stroke-linejoin="round" stroke-miterlimit="10" stroke-width="1.5"/>
          <line id="Line_639" data-name="Line 639" x2="3.62" y2="2.277" transform="translate(29.593 40.995)" fill="none" stroke="#000" stroke-linecap="round" stroke-linejoin="round" stroke-miterlimit="10" stroke-width="1.5"/>
          <line id="Line_640" data-name="Line 640" x1="3.148" y1="1.98" transform="translate(24.493 47.872)" fill="none" stroke="#000" stroke-linecap="round" stroke-linejoin="round" stroke-miterlimit="10" stroke-width="1.5"/>
          <path id="Path_982803" data-name="Path 982803" d="M227,394.123l-5.146,6.9a.883.883,0,0,1-1.229.181l-1.5-1.11a.877.877,0,0,1-.181-1.226l5.146-6.9a.883.883,0,0,1,1.229-.181l1.5,1.11A.877.877,0,0,1,227,394.123Z" transform="translate(-197.579 -353.087)" fill="none" stroke="#000" stroke-linecap="round" stroke-linejoin="round" stroke-miterlimit="10" stroke-width="1.5"/>
          <ellipse id="Ellipse_11662" data-name="Ellipse 11662" cx="2.169" cy="2.16" rx="2.169" ry="2.16" transform="translate(41.648 26.175)" fill="none" stroke="#000" stroke-linecap="round" stroke-linejoin="round" stroke-miterlimit="10" stroke-width="1.5"/>
          <ellipse id="Ellipse_11663" data-name="Ellipse 11663" cx="1.576" cy="1.57" rx="1.576" ry="1.57" transform="translate(39.186 32.547)" fill="none" stroke="#000" stroke-linecap="round" stroke-linejoin="round" stroke-miterlimit="10" stroke-width="1.5"/>
          <path id="Path_982804" data-name="Path 982804" d="M298.592,19.724a3.113,3.113,0,0,0-.439-4.272,4.17,4.17,0,0,0-3.891-5.647,4.9,4.9,0,0,0-.374-.493,5.19,5.19,0,0,0-6.211-1.288h0a3.787,3.787,0,0,0-5.586,2.31,4.626,4.626,0,0,0-4.207,6.988,2.955,2.955,0,0,0-.407,4.9,4.329,4.329,0,0,0,4.692,5.225,4.891,4.891,0,0,0,8.3,2.2,4.055,4.055,0,0,0,5.869-2.39,0,0,0,0,1,0,0,4.046,4.046,0,0,0,.155-.935l.068-.031a4.618,4.618,0,0,0,2.035-6.56Z" transform="translate(-249.392 -7.5)" fill="none" stroke="#000" stroke-linecap="round" stroke-linejoin="round" stroke-miterlimit="10" stroke-width="1.5"/>
          <path id="Path_982805" data-name="Path 982805" d="M332.474,56.411a7.058,7.058,0,1,1-3.511-.019" transform="translate(-291.915 -51.488)" fill="none" stroke="#000" stroke-linecap="round" stroke-linejoin="round" stroke-miterlimit="10" stroke-width="1.5"/>
          <g id="Group_1164441" data-name="Group 1164441" transform="translate(36.893 8.081)">
            <path id="Path_982806" data-name="Path 982806" d="M375.312,89.93a1.873,1.873,0,1,1,1.873,1.866v1.553" transform="translate(-375.312 -88.064)" fill="none" stroke="#000" stroke-linecap="round" stroke-linejoin="round" stroke-miterlimit="10" stroke-width="1.5"/>
            <line id="Line_641" data-name="Line 641" transform="translate(1.873 7.492)" fill="none" stroke="#000" stroke-linecap="round" stroke-linejoin="round" stroke-miterlimit="10" stroke-width="1.5"/>
          </g>
        </g>
      </g>
    </g>
  </g>
</svg>
