<svg xmlns="http://www.w3.org/2000/svg" xmlns:xlink="http://www.w3.org/1999/xlink" width="103" height="103" viewBox="0 0 103 103">
  <defs>
    <filter id="Path_978624" x="0" y="0" width="103" height="103" filterUnits="userSpaceOnUse">
      <feOffset dy="3" input="SourceAlpha"/>
      <feGaussianBlur stdDeviation="3" result="blur"/>
      <feFlood flood-opacity="0.161"/>
      <feComposite operator="in" in2="blur"/>
      <feComposite in="SourceGraphic"/>
    </filter>
  </defs>
  <g id="Group_1164499" data-name="Group 1164499" transform="translate(-171 -2017)">
    <g id="Group_1164432" data-name="Group 1164432">
      <g id="Group_1164280" data-name="Group 1164280" transform="translate(180 2023)">
        <g transform="matrix(1, 0, 0, 1, -9, -6)" filter="url(#Path_978624)">
          <g id="Path_978624-2" data-name="Path 978624" transform="translate(9 6)" fill="#f6ecaa">
            <path d="M 42.5 83.5 C 36.96437835693359 83.5 31.59512901306152 82.41617584228516 26.54141235351562 80.27863311767578 C 21.65934181213379 78.21369171142578 17.27447128295898 75.25723266601562 13.50862312316895 71.49137878417969 C 9.742764472961426 67.72553253173828 6.786305904388428 63.34066009521484 4.721364498138428 58.45858764648438 C 2.583823442459106 53.40486907958984 1.5 48.03562164306641 1.5 42.5 C 1.5 36.96437835693359 2.583823442459106 31.59512901306152 4.721364498138428 26.54141235351562 C 6.786305904388428 21.65934181213379 9.742764472961426 17.27447128295898 13.50862312316895 13.50862312316895 C 17.27447128295898 9.742764472961426 21.65934181213379 6.786305904388428 26.54141235351562 4.721364498138428 C 31.59512901306152 2.583823442459106 36.96437835693359 1.5 42.5 1.5 C 48.03562164306641 1.5 53.40486907958984 2.583823442459106 58.45858764648438 4.721364498138428 C 63.34066009521484 6.786305904388428 67.72553253173828 9.742764472961426 71.49137878417969 13.50862312316895 C 75.25723266601562 17.27447128295898 78.21369171142578 21.65934181213379 80.27863311767578 26.54141235351562 C 82.41617584228516 31.59512901306152 83.5 36.96437835693359 83.5 42.5 C 83.5 48.03562164306641 82.41617584228516 53.40486907958984 80.27863311767578 58.45858764648438 C 78.21369171142578 63.34066009521484 75.25723266601562 67.72553253173828 71.49137878417969 71.49137878417969 C 67.72553253173828 75.25723266601562 63.34066009521484 78.21369171142578 58.45858764648438 80.27863311767578 C 53.40486907958984 82.41617584228516 48.03562164306641 83.5 42.5 83.5 Z" stroke="none"/>
            <path d="M 42.5 3 C 37.16621398925781 3 31.99356079101562 4.043960571289062 27.125732421875 6.102882385253906 C 22.42246627807617 8.092185974121094 18.19785308837891 10.94070434570312 14.56928253173828 14.56928253173828 C 10.94070434570312 18.19785308837891 8.092185974121094 22.42246627807617 6.102882385253906 27.125732421875 C 4.043960571289062 31.99356079101562 3 37.16621398925781 3 42.5 C 3 47.83378601074219 4.043960571289062 53.00643920898438 6.102882385253906 57.87425231933594 C 8.092185974121094 62.57753372192383 10.94070434570312 66.80213165283203 14.56928253173828 70.43071746826172 C 18.19786834716797 74.05929565429688 22.42246627807617 76.90781402587891 27.125732421875 78.89711761474609 C 31.99356079101562 80.95603942871094 37.16621398925781 82 42.5 82 C 47.83378601074219 82 53.00642395019531 80.95603942871094 57.87425231933594 78.89711761474609 C 62.57753372192383 76.90781402587891 66.80213165283203 74.05929565429688 70.43071746826172 70.43071746826172 C 74.05929565429688 66.80213165283203 76.90781402587891 62.57753372192383 78.89711761474609 57.87425231933594 C 80.95603942871094 53.00642395019531 82 47.83378601074219 82 42.5 C 82 37.16621398925781 80.95603942871094 31.99356079101562 78.89711761474609 27.125732421875 C 76.90781402587891 22.42246627807617 74.05929565429688 18.19786834716797 70.43071746826172 14.56928253173828 C 66.80213165283203 10.94070434570312 62.57753372192383 8.092185974121094 57.87425231933594 6.102882385253906 C 53.00643920898438 4.043960571289062 47.83378601074219 3 42.5 3 M 42.5 0 C 65.97209167480469 0 85 19.02789306640625 85 42.5 C 85 65.97209167480469 65.97209167480469 85 42.5 85 C 19.02789306640625 85 0 65.97209167480469 0 42.5 C 0 19.02789306640625 19.02789306640625 0 42.5 0 Z" stroke="none" fill="#bcac89"/>
          </g>
        </g>
      </g>
      <g id="master_8019879" transform="translate(193.75 2035.686)">
        <g id="Group_1164413" data-name="Group 1164413" transform="translate(1.9 6.061)">
          <g id="Group_1164400" data-name="Group 1164400" transform="translate(26.85)">
            <path id="Path_982735" data-name="Path 982735" d="M53.917,41.8C46.945,46.6,39.972,37,33,41.8V7.546c6.972-4.8,13.945,4.8,20.917,0Z" transform="translate(-33 -6.161)" fill="#7cb5e8"/>
          </g>
          <g id="Group_1164401" data-name="Group 1164401" transform="translate(5.933)">
            <path id="Path_982736" data-name="Path 982736" d="M8.85,41.8c6.972,4.8,13.945-4.8,20.917,0V7.546c-6.972-4.8-13.945,4.8-20.917,0Z" transform="translate(-8.85 -6.161)" fill="#7cb5e8"/>
          </g>
          <g id="Group_1164402" data-name="Group 1164402" transform="translate(8.86 20.717)">
            <path id="Path_982737" data-name="Path 982737" d="M21.03,30.08v5.933c-2.936.961-5.864,2.226-8.8,1.672V31.752c2.936.563,5.864-.71,8.8-1.672Z" transform="translate(-12.23 -30.08)" fill="#ffab03"/>
          </g>
          <g id="Group_1164403" data-name="Group 1164403" transform="translate(47.914 33.276)">
            <ellipse id="Ellipse_11660" data-name="Ellipse 11660" cx="2.893" cy="6.453" rx="2.893" ry="6.453" fill="#d7d8d7"/>
          </g>
          <g id="Group_1164404" data-name="Group 1164404" transform="translate(18.639 32.964)">
            <circle id="Ellipse_11661" data-name="Ellipse 11661" cx="6.764" cy="6.764" r="6.764" fill="#ef4a51"/>
          </g>
          <g id="Group_1164405" data-name="Group 1164405" transform="translate(30.765 33.389)">
            <path id="Path_982738" data-name="Path 982738" d="M57.025,44.71a120.7,120.7,0,0,1-19.5,2.235,6.737,6.737,0,0,1-.009,8.22,120.917,120.917,0,0,1,19.592,2.252c-1.386-.485-2.451-3.144-2.451-6.375C54.661,47.9,55.683,45.273,57.025,44.71Z" transform="translate(-37.52 -44.71)" fill="#e2e2e2"/>
          </g>
          <g id="Group_1164406" data-name="Group 1164406" transform="translate(0 33.267)">
            <path id="Path_982739" data-name="Path 982739" d="M20.639,51.031a6.771,6.771,0,0,1,1.49-4.235,120.089,120.089,0,0,1-16.7-2.113,1.455,1.455,0,0,0-.537-.113C3.3,44.579,2,47.472,2,51.031s1.3,6.453,2.893,6.453a1.341,1.341,0,0,0,.45-.087,121.352,121.352,0,0,1,16.786-2.131,6.735,6.735,0,0,1-1.49-4.235Z" transform="translate(-2 -44.57)" fill="#e2e2e2"/>
          </g>
          <g id="Group_1164407" data-name="Group 1164407" transform="translate(21.367 32.964)" opacity="0.2">
            <path id="Path_982740" data-name="Path 982740" d="M30.706,44.22a6.719,6.719,0,0,0-3.958,1.291,7.983,7.983,0,0,0-.078,1.013,8.505,8.505,0,0,0,8.5,8.5,7.983,7.983,0,0,0,1.013-.078A6.752,6.752,0,0,0,30.706,44.22Z" transform="translate(-26.67 -44.22)" fill="#e2e2e2"/>
          </g>
          <g id="Group_1164408" data-name="Group 1164408" transform="translate(23.1 32.964)" opacity="0.2">
            <path id="Path_982741" data-name="Path 982741" d="M30.974,44.22a6.621,6.621,0,0,0-2,.3,6.663,6.663,0,0,0-.3,2,6.768,6.768,0,0,0,6.764,6.764,6.621,6.621,0,0,0,2-.3,6.662,6.662,0,0,0,.3-2A6.768,6.768,0,0,0,30.974,44.22Z" transform="translate(-28.67 -44.22)" fill="#e2e2e2"/>
          </g>
          <g id="Group_1164409" data-name="Group 1164409" transform="translate(25.034 33.046)" opacity="0.2">
            <path id="Path_982742" data-name="Path 982742" d="M37.864,49.6a6.672,6.672,0,0,0-4.946-5.153c-.173-.043-.346-.087-.52-.113a1.3,1.3,0,0,0-.693,2.477,2.231,2.231,0,0,0,.364.1,4.191,4.191,0,0,1,3.274,3.248,1.29,1.29,0,1,0,2.52-.554Z" transform="translate(-30.903 -44.314)" fill="#e2e2e2"/>
          </g>
          <g id="Group_1164410" data-name="Group 1164410" transform="translate(29.188 0.006)" opacity="0.2">
            <path id="Path_982743" data-name="Path 982743" d="M35.778,6.421c-.043.5-.078,1-.078,1.516A17.638,17.638,0,0,0,53.317,25.554c.32,0,.641-.035.961-.052V7.547C48.112,11.791,41.945,4.784,35.778,6.421Z" transform="translate(-35.7 -6.168)" fill="#fff"/>
          </g>
          <g id="Group_1164411" data-name="Group 1164411" transform="translate(32.653 0.121)" opacity="0.2">
            <path id="Path_982744" data-name="Path 982744" d="M39.8,6.3a14.88,14.88,0,0,0-.1,1.654A14.157,14.157,0,0,0,53.853,22.107c.32,0,.641-.026.961-.052V7.565C49.816,11,44.81,7.036,39.8,6.3Z" transform="translate(-39.7 -6.3)" fill="#fff"/>
          </g>
          <g id="Group_1164412" data-name="Group 1164412" transform="translate(40.742 1.385)" opacity="0.2">
            <path id="Path_982745" data-name="Path 982745" d="M50.573,9.077a1.32,1.32,0,0,0-.953,2.382,1.352,1.352,0,0,0,.5.182,11.378,11.378,0,0,0,3.352-.052V17.1a1.3,1.3,0,0,0,2.6-.087V7.76a7.751,7.751,0,0,1-5.5,1.317Z" transform="translate(-49.039 -7.76)" fill="#fff"/>
          </g>
        </g>
        <g id="Group_1164431" data-name="Group 1164431" transform="translate(1.25 5.416)">
          <g id="Group_1164414" data-name="Group 1164414" transform="translate(29.783 5.542)">
            <path id="Path_982746" data-name="Path 982746" d="M49.853,15.873a19.686,19.686,0,0,1-6.236-1.412c-2.5-.857-4.859-1.672-7.206-1.221a.649.649,0,0,1-.251-1.273c2.685-.52,5.327.39,7.873,1.265,2.494.857,4.842,1.663,7.18,1.221a.652.652,0,1,1,.243,1.282,9.031,9.031,0,0,1-1.6.139Z" transform="translate(-35.636 -11.814)"/>
          </g>
          <g id="Group_1164415" data-name="Group 1164415" transform="translate(29.783 12.601)">
            <path id="Path_982747" data-name="Path 982747" d="M49.853,24.023a19.686,19.686,0,0,1-6.236-1.412c-2.5-.857-4.859-1.672-7.206-1.221a.649.649,0,0,1-.251-1.273c2.685-.52,5.327.39,7.873,1.265,2.494.857,4.842,1.663,7.18,1.221a.652.652,0,1,1,.243,1.282,9.031,9.031,0,0,1-1.6.139Z" transform="translate(-35.636 -19.964)"/>
          </g>
          <g id="Group_1164416" data-name="Group 1164416" transform="translate(29.783 19.66)">
            <path id="Path_982748" data-name="Path 982748" d="M49.853,32.173a19.686,19.686,0,0,1-6.236-1.412c-2.5-.857-4.859-1.672-7.206-1.221a.649.649,0,0,1-.251-1.273c2.685-.52,5.327.39,7.873,1.265,2.494.857,4.842,1.663,7.18,1.221a.652.652,0,1,1,.243,1.282,9.031,9.031,0,0,1-1.6.139Z" transform="translate(-35.636 -28.114)"/>
          </g>
          <g id="Group_1164417" data-name="Group 1164417" transform="translate(29.774 26.706)">
            <path id="Path_982749" data-name="Path 982749" d="M49.851,40.321A19.621,19.621,0,0,1,43.6,38.9c-2.494-.857-4.85-1.672-7.2-1.221a.652.652,0,1,1-.243-1.282c2.685-.511,5.309.4,7.864,1.273,2.494.857,4.859,1.672,7.189,1.221a.652.652,0,1,1,.243,1.282,8.3,8.3,0,0,1-1.6.147Z" transform="translate(-35.626 -36.249)"/>
          </g>
          <g id="Group_1164418" data-name="Group 1164418" transform="translate(8.859 5.533)">
            <path id="Path_982750" data-name="Path 982750" d="M13.619,15.871a8.447,8.447,0,0,1-1.611-.147.652.652,0,0,1,.243-1.282c2.339.45,4.694-.364,7.18-1.221,2.555-.875,5.188-1.784,7.873-1.265a.649.649,0,0,1-.251,1.273c-2.347-.45-4.7.355-7.206,1.221a19.365,19.365,0,0,1-6.227,1.42Z" transform="translate(-11.479 -11.804)"/>
          </g>
          <g id="Group_1164419" data-name="Group 1164419" transform="translate(8.859 12.592)">
            <path id="Path_982751" data-name="Path 982751" d="M13.619,24.021a8.447,8.447,0,0,1-1.611-.147.652.652,0,0,1,.243-1.282c2.339.45,4.694-.364,7.18-1.221,2.555-.875,5.188-1.784,7.873-1.265a.649.649,0,0,1-.251,1.273c-2.347-.45-4.7.355-7.206,1.221a19.365,19.365,0,0,1-6.227,1.42Z" transform="translate(-11.479 -19.954)"/>
          </g>
          <g id="Group_1164420" data-name="Group 1164420" transform="translate(8.869 20.721)">
            <path id="Path_982752" data-name="Path 982752" d="M13.621,38.382a8.358,8.358,0,0,1-1.6-.147.658.658,0,0,1-.528-.641V31.661a.649.649,0,0,1,.771-.641c2.339.442,4.694-.364,7.18-1.213.433-.147.866-.294,1.291-.433a.612.612,0,0,1,.58.1A.664.664,0,0,1,21.58,30v5.933a.65.65,0,0,1-.45.615c-.424.139-.849.286-1.273.433A20.019,20.019,0,0,1,13.621,38.382Zm-.84-1.351c2.165.243,4.348-.5,6.652-1.291l.849-.286V30.89c-.139.052-.286.1-.424.147-2.3.788-4.668,1.594-7.076,1.368Z" transform="translate(-11.49 -29.34)"/>
          </g>
          <g id="Group_1164421" data-name="Group 1164421" transform="translate(20.596 19.662)">
            <path id="Path_982753" data-name="Path 982753" d="M25.679,29.583a.657.657,0,0,1-.641-.537.65.65,0,0,1,.528-.754,9.851,9.851,0,0,1,3.56-.026.649.649,0,0,1-.251,1.273,8.279,8.279,0,0,0-3.092.035.422.422,0,0,1-.1.009Z" transform="translate(-25.029 -28.117)"/>
          </g>
          <g id="Group_1164422" data-name="Group 1164422" transform="translate(20.596 25.692)">
            <path id="Path_982754" data-name="Path 982754" d="M25.679,36.552a.657.657,0,0,1-.641-.537.65.65,0,0,1,.528-.754,9.672,9.672,0,0,1,3.56-.035.652.652,0,0,1-.243,1.282,8.418,8.418,0,0,0-3.083.035.659.659,0,0,1-.121.009Z" transform="translate(-25.029 -35.078)"/>
          </g>
          <g id="Group_1164423" data-name="Group 1164423" transform="translate(47.914 33.28)">
            <path id="Path_982755" data-name="Path 982755" d="M60.112,58.044c-2.018,0-3.542-3.057-3.542-7.1s1.524-7.1,3.542-7.1,3.542,3.057,3.542,7.1S62.131,58.044,60.112,58.044Zm0-12.914c-1.057,0-2.243,2.486-2.243,5.8s1.187,5.8,2.243,5.8,2.243-2.486,2.243-5.8S61.169,45.131,60.112,45.131Z" transform="translate(-56.57 -43.84)"/>
          </g>
          <g id="Group_1164424" data-name="Group 1164424" transform="translate(18.639 32.968)">
            <path id="Path_982756" data-name="Path 982756" d="M30.184,58.308A7.414,7.414,0,1,1,37.6,50.894a7.422,7.422,0,0,1-7.414,7.414Zm0-13.538A6.115,6.115,0,1,0,36.3,50.885,6.125,6.125,0,0,0,30.184,44.771Z" transform="translate(-22.77 -43.48)"/>
          </g>
          <g id="Group_1164425" data-name="Group 1164425" transform="translate(5.933)">
            <path id="Path_982757" data-name="Path 982757" d="M8.75,37.917a.654.654,0,0,1-.65-.65V7.446a.644.644,0,0,1,1.013-.528c3.222,2.217,6.453,1.1,9.883-.078,3.465-1.187,7.042-2.416,10.671-.165,3.629-2.252,7.206-1.031,10.671.165,3.43,1.178,6.669,2.3,9.891.078a.64.64,0,0,1,.667-.043.647.647,0,0,1,.346.572V37.258a.65.65,0,0,1-1.3,0V8.589c-3.4,1.75-6.764.589-10.03-.528-3.43-1.178-6.669-2.287-9.883-.078a.638.638,0,0,1-.736,0c-3.213-2.209-6.453-1.1-9.874.078C16.164,9.178,12.8,10.33,9.4,8.589V37.267a.654.654,0,0,1-.65.65Z" transform="translate(-8.1 -5.416)"/>
          </g>
          <g id="Group_1164426" data-name="Group 1164426" transform="translate(22.955 37.977)">
            <path id="Path_982758" data-name="Path 982758" d="M29.786,54.067a.642.642,0,0,1-.459-.191L27.941,52.5a.649.649,0,0,1,.918-.918l.927.918,3.049-3.049a.649.649,0,0,1,.918.918l-3.508,3.508A.642.642,0,0,1,29.786,54.067Z" transform="translate(-27.752 -49.262)"/>
          </g>
          <g id="Group_1164427" data-name="Group 1164427" transform="translate(26.85 1.381)">
            <path id="Path_982759" data-name="Path 982759" d="M32.9,37.4a.654.654,0,0,1-.65-.65V7.66a.65.65,0,1,1,1.3,0v29.1A.647.647,0,0,1,32.9,37.4Z" transform="translate(-32.25 -7.01)"/>
          </g>
          <g id="Group_1164428" data-name="Group 1164428" transform="translate(0 33.28)">
            <path id="Path_982760" data-name="Path 982760" d="M4.792,58.044c-2.018,0-3.542-3.057-3.542-7.1s1.524-7.1,3.542-7.1a1.96,1.96,0,0,1,.719.139,119.825,119.825,0,0,0,13.6,1.871.652.652,0,1,1-.1,1.3A121.255,121.255,0,0,1,5.2,45.243a.5.5,0,0,1-.121-.035.738.738,0,0,0-.286-.061c-1.057,0-2.243,2.486-2.243,5.8s1.187,5.8,2.243,5.8a.72.72,0,0,0,.234-.052l.087-.026a121.525,121.525,0,0,1,13.9-1.923.652.652,0,1,1,.1,1.3A122.09,122.09,0,0,0,5.407,57.941a1.95,1.95,0,0,1-.615.1Z" transform="translate(-1.25 -43.84)"/>
          </g>
          <g id="Group_1164429" data-name="Group 1164429" transform="translate(33.735 33.38)">
            <path id="Path_982761" data-name="Path 982761" d="M40.849,47.355a.66.66,0,0,1-.65-.615.649.649,0,0,1,.615-.684,120.98,120.98,0,0,0,16.439-2.087.649.649,0,0,1,.251,1.273,120.924,120.924,0,0,1-16.621,2.1c-.009.009-.017.009-.035.009Z" transform="translate(-40.199 -43.956)"/>
          </g>
          <g id="Group_1164430" data-name="Group 1164430" transform="translate(33.726 43.984)">
            <path id="Path_982762" data-name="Path 982762" d="M57.469,59.612a.656.656,0,0,1-.13-.009A121.022,121.022,0,0,0,40.8,57.5a.655.655,0,0,1-.615-.684.639.639,0,0,1,.684-.615,122.023,122.023,0,0,1,16.708,2.122.649.649,0,0,1,.511.762.631.631,0,0,1-.624.528Z" transform="translate(-40.189 -56.198)"/>
          </g>
        </g>
      </g>
    </g>
  </g>
</svg>
