<svg xmlns="http://www.w3.org/2000/svg" xmlns:xlink="http://www.w3.org/1999/xlink" width="103" height="103" viewBox="0 0 103 103">
  <defs>
    <filter id="Path_978624" x="0" y="0" width="103" height="103" filterUnits="userSpaceOnUse">
      <feOffset dy="3" input="SourceAlpha"/>
      <feGaussianBlur stdDeviation="3" result="blur"/>
      <feFlood flood-opacity="0.161"/>
      <feComposite operator="in" in2="blur"/>
      <feComposite in="SourceGraphic"/>
    </filter>
  </defs>
  <g id="Group_1164515" data-name="Group 1164515" transform="translate(-195 -2385)">
    <g id="Group_1164446" data-name="Group 1164446">
      <g id="Group_1164327" data-name="Group 1164327" transform="translate(204 2391)">
        <g transform="matrix(1, 0, 0, 1, -9, -6)" filter="url(#Path_978624)">
          <g id="Path_978624-2" data-name="Path 978624" transform="translate(9 6)" fill="#f4fdfe">
            <path d="M 42.5 83.5 C 36.96437835693359 83.5 31.59512901306152 82.41617584228516 26.54141235351562 80.27863311767578 C 21.65934181213379 78.21369171142578 17.27447128295898 75.25723266601562 13.50862312316895 71.49137878417969 C 9.742764472961426 67.72553253173828 6.786305904388428 63.34066009521484 4.721364498138428 58.45858764648438 C 2.583823442459106 53.40486907958984 1.5 48.03562164306641 1.5 42.5 C 1.5 36.96437835693359 2.583823442459106 31.59512901306152 4.721364498138428 26.54141235351562 C 6.786305904388428 21.65934181213379 9.742764472961426 17.27447128295898 13.50862312316895 13.50862312316895 C 17.27447128295898 9.742764472961426 21.65934181213379 6.786305904388428 26.54141235351562 4.721364498138428 C 31.59512901306152 2.583823442459106 36.96437835693359 1.5 42.5 1.5 C 48.03562164306641 1.5 53.40486907958984 2.583823442459106 58.45858764648438 4.721364498138428 C 63.34066009521484 6.786305904388428 67.72553253173828 9.742764472961426 71.49137878417969 13.50862312316895 C 75.25723266601562 17.27447128295898 78.21369171142578 21.65934181213379 80.27863311767578 26.54141235351562 C 82.41617584228516 31.59512901306152 83.5 36.96437835693359 83.5 42.5 C 83.5 48.03562164306641 82.41617584228516 53.40486907958984 80.27863311767578 58.45858764648438 C 78.21369171142578 63.34066009521484 75.25723266601562 67.72553253173828 71.49137878417969 71.49137878417969 C 67.72553253173828 75.25723266601562 63.34066009521484 78.21369171142578 58.45858764648438 80.27863311767578 C 53.40486907958984 82.41617584228516 48.03562164306641 83.5 42.5 83.5 Z" stroke="none"/>
            <path d="M 42.5 3 C 37.16621398925781 3 31.99356079101562 4.043960571289062 27.125732421875 6.102882385253906 C 22.42246627807617 8.092185974121094 18.19785308837891 10.94070434570312 14.56928253173828 14.56928253173828 C 10.94070434570312 18.19785308837891 8.092185974121094 22.42246627807617 6.102882385253906 27.125732421875 C 4.043960571289062 31.99356079101562 3 37.16621398925781 3 42.5 C 3 47.83378601074219 4.043960571289062 53.00643920898438 6.102882385253906 57.87425231933594 C 8.092185974121094 62.57753372192383 10.94070434570312 66.80213165283203 14.56928253173828 70.43071746826172 C 18.19786834716797 74.05929565429688 22.42246627807617 76.90781402587891 27.125732421875 78.89711761474609 C 31.99356079101562 80.95603942871094 37.16621398925781 82 42.5 82 C 47.83378601074219 82 53.00642395019531 80.95603942871094 57.87425231933594 78.89711761474609 C 62.57753372192383 76.90781402587891 66.80213165283203 74.05929565429688 70.43071746826172 70.43071746826172 C 74.05929565429688 66.80213165283203 76.90781402587891 62.57753372192383 78.89711761474609 57.87425231933594 C 80.95603942871094 53.00642395019531 82 47.83378601074219 82 42.5 C 82 37.16621398925781 80.95603942871094 31.99356079101562 78.89711761474609 27.125732421875 C 76.90781402587891 22.42246627807617 74.05929565429688 18.19786834716797 70.43071746826172 14.56928253173828 C 66.80213165283203 10.94070434570312 62.57753372192383 8.092185974121094 57.87425231933594 6.102882385253906 C 53.00643920898438 4.043960571289062 47.83378601074219 3 42.5 3 M 42.5 0 C 65.97209167480469 0 85 19.02789306640625 85 42.5 C 85 65.97209167480469 65.97209167480469 85 42.5 85 C 19.02789306640625 85 0 65.97209167480469 0 42.5 C 0 19.02789306640625 19.02789306640625 0 42.5 0 Z" stroke="none" fill="#56838a"/>
          </g>
        </g>
      </g>
      <g id="compliant_4252360_1_" data-name="compliant_4252360 (1)" transform="translate(206.222 2406.723)">
        <g id="Group_1164360" data-name="Group 1164360" transform="translate(25.667 0.784)">
          <path id="Path_982666" data-name="Path 982666" d="M150.147,7.5H116.838a.523.523,0,0,0-.523.523v14.5h3.43a2.563,2.563,0,0,1,.179,5.12v3.18h0a1.045,1.045,0,0,1,.887,1.033v6.493a1.045,1.045,0,0,1-.887,1.033h0v3.18a2.563,2.563,0,0,1-.179,5.12h-3.43v4.292h7.218a1.046,1.046,0,0,1,1.046,1.046V55.1h.8a1.046,1.046,0,0,1,1.046,1.046v3.336H150.67V8.023A.523.523,0,0,0,150.147,7.5Z" transform="translate(-116.315 -7.5)" fill="#fff3de"/>
        </g>
        <g id="Group_1164361" data-name="Group 1164361" transform="translate(25.667 0.784)">
          <path id="Path_982667" data-name="Path 982667" d="M119.745,22.523l.093,0V8.023a.523.523,0,0,1,.523-.523h-3.523a.523.523,0,0,0-.523.523v14.5Z" transform="translate(-116.315 -7.5)" fill="#ffe5c2"/>
          <path id="Path_982668" data-name="Path 982668" d="M119.745,391.629h-3.43v4.292h3.523v-4.295Z" transform="translate(-116.315 -351.449)" fill="#ffe5c2"/>
        </g>
        <g id="Group_1164379" data-name="Group 1164379" transform="translate(15.862 15.807)">
          <g id="Group_1164362" data-name="Group 1164362" transform="translate(14.3 10.79)">
            <path id="Path_982669" data-name="Path 982669" d="M159.3,254.29h4.842v3.577H159.3Z" transform="translate(-159.296 -254.29)" fill="#883f2e"/>
            <path id="Path_982670" data-name="Path 982670" d="M237.5,254.29h6.915v3.577H237.5Z" transform="translate(-229.322 -254.29)" fill="#883f2e"/>
          </g>
          <g id="Group_1164363" data-name="Group 1164363" transform="translate(14.3 12.643)">
            <path id="Path_982671" data-name="Path 982671" d="M159.3,272h4.842v1.724H159.3Z" transform="translate(-159.296 -272)" fill="#6d3326"/>
            <path id="Path_982672" data-name="Path 982672" d="M237.5,272h6.915v1.724H237.5Z" transform="translate(-229.322 -272)" fill="#6d3326"/>
          </g>
          <g id="Group_1164364" data-name="Group 1164364" transform="translate(29.396 9.956)">
            <path id="Path_982673" data-name="Path 982673" d="M323.051,248.933a2.623,2.623,0,0,1-2.623,2.623H304.212a.6.6,0,0,1-.6-.6v-4.054a.6.6,0,0,1,.6-.6h16.215A2.623,2.623,0,0,1,323.051,248.933Z" transform="translate(-303.616 -246.31)" fill="#ca6e59"/>
          </g>
          <g id="Group_1164365" data-name="Group 1164365" transform="translate(29.396 9.956)">
            <path id="Path_982674" data-name="Path 982674" d="M307.181,249.311a.6.6,0,0,1-.6-.6v-2.4h-2.373a.6.6,0,0,0-.6.6v4.054a.6.6,0,0,0,.6.6h16.215a2.623,2.623,0,0,0,2.6-2.245Z" transform="translate(-303.616 -246.31)" fill="#bb5d4c"/>
          </g>
          <g id="Group_1164366" data-name="Group 1164366" transform="translate(19.142 9.956)">
            <path id="Path_982675" data-name="Path 982675" d="M208.923,246.834v4.2a.523.523,0,0,1-.523.523h-2.292a.523.523,0,0,1-.523-.523v-4.2a.523.523,0,0,1,.523-.523H208.4A.523.523,0,0,1,208.923,246.834Z" transform="translate(-205.585 -246.311)" fill="#ca6e59"/>
          </g>
          <g id="Group_1164367" data-name="Group 1164367" transform="translate(19.142 9.956)">
            <path id="Path_982676" data-name="Path 982676" d="M207.1,251.034v-4.2a.523.523,0,0,1,.523-.523h-1.516a.523.523,0,0,0-.523.523v4.2a.523.523,0,0,0,.523.523h1.516A.523.523,0,0,1,207.1,251.034Z" transform="translate(-205.585 -246.311)" fill="#bb5d4c"/>
          </g>
          <g id="Group_1164368" data-name="Group 1164368" transform="translate(6.498 5.12)">
            <path id="Path_982677" data-name="Path 982677" d="M91.459,312.31h-6.6a1.049,1.049,0,0,1-.159-.013v3.18c.059,0,.119-.007.179-.007H91.44c.06,0,.12,0,.179.007V312.3A1.037,1.037,0,0,1,91.459,312.31Z" transform="translate(-84.703 -300.559)" fill="#883f2e"/>
            <path id="Path_982678" data-name="Path 982678" d="M84.862,312.31a1.049,1.049,0,0,1-.159-.013v3.18c.059,0,.119-.007.179-.007h2.455v-3.16H84.862Z" transform="translate(-84.703 -300.559)" fill="#6d3326"/>
            <path id="Path_982679" data-name="Path 982679" d="M84.862,203.245h6.6a1.049,1.049,0,0,1,.159.013v-3.18c-.059,0-.119.007-.179.007H84.882c-.06,0-.12,0-.179-.007v3.18A1.049,1.049,0,0,1,84.862,203.245Z" transform="translate(-84.703 -200.079)" fill="#883f2e"/>
            <path id="Path_982680" data-name="Path 982680" d="M84.862,203.245h2.475v-3.16H84.882c-.06,0-.12,0-.179-.007v3.18a1.067,1.067,0,0,1,.159-.013Z" transform="translate(-84.703 -200.078)" fill="#6d3326"/>
          </g>
          <g id="Group_1164369" data-name="Group 1164369" transform="translate(5.611 8.287)">
            <path id="Path_982681" data-name="Path 982681" d="M84.914,231.4v6.493a1.046,1.046,0,0,1-1.046,1.046h-6.6a1.046,1.046,0,0,1-1.046-1.046V231.4a1.046,1.046,0,0,1,1.046-1.046h6.6A1.046,1.046,0,0,1,84.914,231.4Z" transform="translate(-76.225 -230.352)" fill="#ca6e59"/>
          </g>
          <g id="Group_1164370" data-name="Group 1164370" transform="translate(5.611 8.287)">
            <path id="Path_982682" data-name="Path 982682" d="M79.758,237.891V231.4a1.046,1.046,0,0,1,1.046-1.046H77.271a1.046,1.046,0,0,0-1.046,1.046v6.493a1.046,1.046,0,0,0,1.046,1.046H80.8A1.046,1.046,0,0,1,79.758,237.891Z" transform="translate(-76.225 -230.352)" fill="#bb5d4c"/>
          </g>
          <g id="Group_1164373" data-name="Group 1164373" transform="translate(0 29.45)">
            <path id="Path_982683" data-name="Path 982683" d="M56.416,435.919a1.069,1.069,0,0,0,.005-.107v-2.081a1.046,1.046,0,0,0-1.046-1.046H41.241a1.046,1.046,0,0,0-1.046,1.046v2.081a1.068,1.068,0,0,0,.005.107Z" transform="translate(-38.352 -432.685)" fill="#ca6e59"/>
            <path id="Path_982684" data-name="Path 982684" d="M43.736,435.919a1.068,1.068,0,0,1-.005-.107v-2.081a1.046,1.046,0,0,1,1.046-1.046H41.241a1.046,1.046,0,0,0-1.046,1.046v2.081a1.069,1.069,0,0,0,.005.107Z" transform="translate(-38.352 -432.685)" fill="#bb5d4c"/>
            <g id="Group_1164371" data-name="Group 1164371" transform="translate(0 3.13)">
              <path id="Path_982685" data-name="Path 982685" d="M42.49,466.99H23.1a.523.523,0,0,1-.523-.523v-2.813a1.046,1.046,0,0,1,1.046-1.046h17.82a1.046,1.046,0,0,1,1.046,1.046Z" transform="translate(-22.578 -462.608)" fill="#883f2e"/>
            </g>
            <g id="Group_1164372" data-name="Group 1164372" transform="translate(0 3.13)">
              <path id="Path_982686" data-name="Path 982686" d="M26.074,466.467v-2.813a1.046,1.046,0,0,1,1.046-1.046h-3.5a1.046,1.046,0,0,0-1.046,1.046v2.813a.523.523,0,0,0,.523.523h3.5A.523.523,0,0,1,26.074,466.467Z" transform="translate(-22.578 -462.608)" fill="#6d3326"/>
            </g>
          </g>
          <g id="Group_1164378" data-name="Group 1164378" transform="translate(4.113)">
            <g id="Group_1164374" data-name="Group 1164374" transform="translate(0 20.031)">
              <path id="Path_982687" data-name="Path 982687" d="M73.59,345.2a2.564,2.564,0,0,1-2.563,2.563H64.468a2.563,2.563,0,0,1,0-5.127h6.558A2.564,2.564,0,0,1,73.59,345.2Z" transform="translate(-61.905 -342.633)" fill="#ca6e59"/>
            </g>
            <g id="Group_1164375" data-name="Group 1164375" transform="translate(0 20.031)">
              <path id="Path_982688" data-name="Path 982688" d="M65.4,345.2a2.564,2.564,0,0,1,2.563-2.563H64.468a2.563,2.563,0,1,0,0,5.127H67.96A2.564,2.564,0,0,1,65.4,345.2Z" transform="translate(-61.905 -342.633)" fill="#bb5d4c"/>
            </g>
            <g id="Group_1164376" data-name="Group 1164376" transform="translate(0)">
              <path id="Path_982689" data-name="Path 982689" d="M73.59,153.691a2.564,2.564,0,0,1-2.563,2.563H64.468a2.563,2.563,0,0,1,0-5.127h6.558A2.564,2.564,0,0,1,73.59,153.691Z" transform="translate(-61.905 -151.128)" fill="#ca6e59"/>
            </g>
            <g id="Group_1164377" data-name="Group 1164377">
              <path id="Path_982690" data-name="Path 982690" d="M65.4,153.691a2.564,2.564,0,0,1,2.563-2.563H64.468a2.563,2.563,0,0,0,0,5.127H67.96A2.563,2.563,0,0,1,65.4,153.691Z" transform="translate(-61.905 -151.128)" fill="#bb5d4c"/>
            </g>
          </g>
        </g>
        <g id="Group_1164382" data-name="Group 1164382" transform="translate(35.505 5.659)">
          <g id="Group_1164380" data-name="Group 1164380">
            <circle id="Ellipse_11659" data-name="Ellipse 11659" cx="7.339" cy="7.339" r="7.339" fill="#4fc123"/>
          </g>
          <g id="Group_1164381" data-name="Group 1164381" transform="translate(0)">
            <path id="Path_982691" data-name="Path 982691" d="M213.889,61.446a7.341,7.341,0,0,1,5.581-7.126,7.339,7.339,0,1,0,0,14.252A7.341,7.341,0,0,1,213.889,61.446Z" transform="translate(-210.372 -54.107)" fill="#47a920"/>
          </g>
        </g>
        <g id="Group_1164383" data-name="Group 1164383" transform="translate(15.078 0)">
          <path id="Path_982692" data-name="Path 982692" d="M62.07,24.979H60.807V11.4A.785.785,0,0,0,60,10.617a.806.806,0,0,0-.76.817V24.979H53.98a.784.784,0,1,0,0,1.569h8.09a1.839,1.839,0,1,1,0,3.677H46.043V26.548h4.276a.784.784,0,0,0,0-1.569H45.854a1.382,1.382,0,0,0-1.268.835H39.037a1.309,1.309,0,0,0-1.218-.835H35.527a1.309,1.309,0,0,0-1.218.835H30.947V25.14a1.829,1.829,0,0,0-.887-1.565v-2a3.348,3.348,0,0,0-.963-6.554H26.451V1.569H59.238V7.74a.785.785,0,0,0,.809.784.806.806,0,0,0,.76-.817v-6.4A1.307,1.307,0,0,0,59.5,0H26.19a1.307,1.307,0,0,0-1.307,1.307V15.023H22.539a3.348,3.348,0,0,0-.963,6.554v2a1.829,1.829,0,0,0-.887,1.565v6.493a1.829,1.829,0,0,0,.887,1.565v2a3.348,3.348,0,0,0,.963,6.554h2.343v2.723H18.751a1.833,1.833,0,0,0-1.83,1.83v1.3h-.012a1.833,1.833,0,0,0-1.83,1.83v2.813a1.309,1.309,0,0,0,1.307,1.307H59.5a1.307,1.307,0,0,0,1.307-1.307V31.794H62.07a3.408,3.408,0,0,0,0-6.815Zm-22.942,2.4h5.346V29.39H39.127Zm-3.338-.835h1.769v3.677H35.789Zm-4.842.835H34.22V29.39H30.947ZM20.76,18.371a1.781,1.781,0,0,1,1.779-1.779H29.1a1.779,1.779,0,1,1,0,3.558H22.539a1.781,1.781,0,0,1-1.779-1.779ZM22.52,31.894a.262.262,0,0,1-.261-.261V25.14a.262.262,0,0,1,.261-.261h6.6a.262.262,0,0,1,.261.261v6.493a.262.262,0,0,1-.261.261Zm5.972,1.569v1.591H23.145V33.463ZM23.145,23.31V21.719h5.346V23.31Zm-.606,16.871a1.779,1.779,0,1,1,0-3.558H29.1a1.779,1.779,0,1,1,0,3.558Zm12.45,11.8H16.647V49.433a.262.262,0,0,1,.261-.261h4.856a.784.784,0,1,0,0-1.569H18.49V46.3a.262.262,0,0,1,.261-.261H32.885a.262.262,0,0,1,.261.261v1.3H25.425a.784.784,0,1,0,0,1.569h9.3a.262.262,0,0,1,.261.261Zm24.248,0H36.558V49.433a1.833,1.833,0,0,0-1.83-1.83h-.012V46.3a1.833,1.833,0,0,0-1.83-1.83H26.451V41.75H29.1A3.348,3.348,0,0,0,30.06,35.2v-2a1.829,1.829,0,0,0,.887-1.565v-.673H34.31a1.309,1.309,0,0,0,1.218.835H37.82a1.309,1.309,0,0,0,1.218-.835h5.549a1.382,1.382,0,0,0,1.267.835H59.238V51.985Z" transform="translate(-15.078 0)"/>
          <path id="Path_982693" data-name="Path 982693" d="M202.872,54.731A8.124,8.124,0,1,0,211,46.607,8.133,8.133,0,0,0,202.872,54.731Zm14.679,0A6.555,6.555,0,1,1,211,48.176,6.562,6.562,0,0,1,217.551,54.731Z" transform="translate(-183.229 -41.732)"/>
          <path id="Path_982694" data-name="Path 982694" d="M247.682,102.716a.784.784,0,0,0-1.109,1.109l2.413,2.413a.785.785,0,0,0,1.11,0l3.74-3.74a.784.784,0,0,0-1.109-1.109l-3.185,3.185Z" transform="translate(-222.154 -90.578)"/>
          <path id="Path_982695" data-name="Path 982695" d="M243.681,327.854a.784.784,0,0,0,.784.784h14.427a.784.784,0,0,0,0-1.569H244.465A.784.784,0,0,0,243.681,327.854Z" transform="translate(-219.77 -292.859)"/>
          <path id="Path_982696" data-name="Path 982696" d="M318.722,363.546h-7.438a.784.784,0,0,0,0,1.569h7.438a.784.784,0,0,0,0-1.569Z" transform="translate(-279.6 -325.52)"/>
          <path id="Path_982697" data-name="Path 982697" d="M244.465,365.115h4.27a.784.784,0,1,0,0-1.569h-4.27a.784.784,0,1,0,0,1.569Z" transform="translate(-219.77 -325.52)"/>
          <path id="Path_982698" data-name="Path 982698" d="M258.891,400.023H244.464a.784.784,0,1,0,0,1.569h14.427a.784.784,0,0,0,0-1.569Z" transform="translate(-219.769 -358.182)"/>
          <path id="Path_982699" data-name="Path 982699" d="M350.061,436.5h-3.777a.785.785,0,1,0,0,1.569h3.777a.785.785,0,0,0,0-1.569Z" transform="translate(-310.939 -390.844)"/>
          <path id="Path_982700" data-name="Path 982700" d="M252.71,436.5h-8.244a.785.785,0,0,0,0,1.569h8.244a.785.785,0,0,0,0-1.569Z" transform="translate(-219.77 -390.844)"/>
        </g>
      </g>
    </g>
  </g>
</svg>
