<svg xmlns="http://www.w3.org/2000/svg" xmlns:xlink="http://www.w3.org/1999/xlink" width="103" height="103" viewBox="0 0 103 103">
  <defs>
    <filter id="Path_978624" x="0" y="0" width="103" height="103" filterUnits="userSpaceOnUse">
      <feOffset dy="3" input="SourceAlpha"/>
      <feGaussianBlur stdDeviation="3" result="blur"/>
      <feFlood flood-opacity="0.161"/>
      <feComposite operator="in" in2="blur"/>
      <feComposite in="SourceGraphic"/>
    </filter>
  </defs>
  <g id="Group_1164526" data-name="Group 1164526" transform="translate(-614 -5743)">
    <g id="Group_1164453" data-name="Group 1164453">
      <g id="Group_1164331" data-name="Group 1164331" transform="translate(623 5749)">
        <g transform="matrix(1, 0, 0, 1, -9, -6)" filter="url(#Path_978624)">
          <g id="Path_978624-2" data-name="Path 978624" transform="translate(9 6)" fill="#f4fdfe">
            <path d="M 42.5 83.5 C 36.96437835693359 83.5 31.59512901306152 82.41617584228516 26.54141235351562 80.27863311767578 C 21.65934181213379 78.21369171142578 17.27447128295898 75.25723266601562 13.50862312316895 71.49137878417969 C 9.742764472961426 67.72553253173828 6.786305904388428 63.34066009521484 4.721364498138428 58.45858764648438 C 2.583823442459106 53.40486907958984 1.5 48.03562164306641 1.5 42.5 C 1.5 36.96437835693359 2.583823442459106 31.59512901306152 4.721364498138428 26.54141235351562 C 6.786305904388428 21.65934181213379 9.742764472961426 17.27447128295898 13.50862312316895 13.50862312316895 C 17.27447128295898 9.742764472961426 21.65934181213379 6.786305904388428 26.54141235351562 4.721364498138428 C 31.59512901306152 2.583823442459106 36.96437835693359 1.5 42.5 1.5 C 48.03562164306641 1.5 53.40486907958984 2.583823442459106 58.45858764648438 4.721364498138428 C 63.34066009521484 6.786305904388428 67.72553253173828 9.742764472961426 71.49137878417969 13.50862312316895 C 75.25723266601562 17.27447128295898 78.21369171142578 21.65934181213379 80.27863311767578 26.54141235351562 C 82.41617584228516 31.59512901306152 83.5 36.96437835693359 83.5 42.5 C 83.5 48.03562164306641 82.41617584228516 53.40486907958984 80.27863311767578 58.45858764648438 C 78.21369171142578 63.34066009521484 75.25723266601562 67.72553253173828 71.49137878417969 71.49137878417969 C 67.72553253173828 75.25723266601562 63.34066009521484 78.21369171142578 58.45858764648438 80.27863311767578 C 53.40486907958984 82.41617584228516 48.03562164306641 83.5 42.5 83.5 Z" stroke="none"/>
            <path d="M 42.5 3 C 37.16621398925781 3 31.99356079101562 4.043960571289062 27.125732421875 6.102882385253906 C 22.42246627807617 8.092185974121094 18.19785308837891 10.94070434570312 14.56928253173828 14.56928253173828 C 10.94070434570312 18.19785308837891 8.092185974121094 22.42246627807617 6.102882385253906 27.125732421875 C 4.043960571289062 31.99356079101562 3 37.16621398925781 3 42.5 C 3 47.83378601074219 4.043960571289062 53.00643920898438 6.102882385253906 57.87425231933594 C 8.092185974121094 62.57753372192383 10.94070434570312 66.80213165283203 14.56928253173828 70.43071746826172 C 18.19786834716797 74.05929565429688 22.42246627807617 76.90781402587891 27.125732421875 78.89711761474609 C 31.99356079101562 80.95603942871094 37.16621398925781 82 42.5 82 C 47.83378601074219 82 53.00642395019531 80.95603942871094 57.87425231933594 78.89711761474609 C 62.57753372192383 76.90781402587891 66.80213165283203 74.05929565429688 70.43071746826172 70.43071746826172 C 74.05929565429688 66.80213165283203 76.90781402587891 62.57753372192383 78.89711761474609 57.87425231933594 C 80.95603942871094 53.00642395019531 82 47.83378601074219 82 42.5 C 82 37.16621398925781 80.95603942871094 31.99356079101562 78.89711761474609 27.125732421875 C 76.90781402587891 22.42246627807617 74.05929565429688 18.19786834716797 70.43071746826172 14.56928253173828 C 66.80213165283203 10.94070434570312 62.57753372192383 8.092185974121094 57.87425231933594 6.102882385253906 C 53.00643920898438 4.043960571289062 47.83378601074219 3 42.5 3 M 42.5 0 C 65.97209167480469 0 85 19.02789306640625 85 42.5 C 85 65.97209167480469 65.97209167480469 85 42.5 85 C 19.02789306640625 85 0 65.97209167480469 0 42.5 C 0 19.02789306640625 19.02789306640625 0 42.5 0 Z" stroke="none" fill="#56838a"/>
          </g>
        </g>
      </g>
      <g id="checklist_1739544" transform="translate(639.76 5764.153)">
        <path id="Path_982844" data-name="Path 982844" d="M16.821,8,8,16.821V60.928H50.343V8Zm0,0" transform="translate(-7.118 -7.118)" fill="#e6e9ed"/>
        <path id="Path_982845" data-name="Path 982845" d="M16.821,8v8.821H8Zm0,0" transform="translate(-7.118 -7.118)" fill="#fcd770"/>
        <path id="Path_982846" data-name="Path 982846" d="M146.464,43.529v7.057a3.528,3.528,0,0,1-3.529,3.529H123.529A3.528,3.528,0,0,1,120,50.586V43.529A3.528,3.528,0,0,1,123.529,40h19.407A3.528,3.528,0,0,1,146.464,43.529Zm0,0" transform="translate(-106.769 -35.589)" fill="#ffeaa7"/>
        <g id="Group_1164452" data-name="Group 1164452" transform="translate(4.41 9.704)">
          <path id="Path_982847" data-name="Path 982847" d="M224,88h3.529v3.529H224Zm0,0" transform="translate(-203.711 -88)" fill="#b4dd7f"/>
          <path id="Path_982848" data-name="Path 982848" d="M296,88h3.529v3.529H296Zm0,0" transform="translate(-267.772 -88)" fill="#b4dd7f"/>
          <path id="Path_982849" data-name="Path 982849" d="M152,88h3.529v3.529H152Zm0,0" transform="translate(-139.65 -88)" fill="#b4dd7f"/>
          <path id="Path_982850" data-name="Path 982850" d="M49.641,362.276a5.234,5.234,0,0,1,.944,3.017,5.292,5.292,0,1,1-.944-3.017Zm0,0" transform="translate(-40 -330.008)" fill="#b4dd7f"/>
          <path id="Path_982851" data-name="Path 982851" d="M49.641,218.276a5.234,5.234,0,0,1,.944,3.017,5.292,5.292,0,1,1-.944-3.017Zm0,0" transform="translate(-40 -201.886)" fill="#b4dd7f"/>
          <path id="Path_982852" data-name="Path 982852" d="M332.046,296.365l-13.841,13.841L316,308l13.841-13.841Zm0,0" transform="translate(-285.566 -271.427)" fill="#b4dd7f"/>
        </g>
        <path id="Path_982853" data-name="Path 982853" d="M312.046,276.366l-13.841,13.841L296,288l10.586-10.586v-.009l3.255-3.246Zm0,0" transform="translate(-263.362 -243.929)" fill="#ff826e"/>
        <path id="Path_982854" data-name="Path 982854" d="M286.175,404.091,280,405.89l1.764-6.21Zm0,0" transform="translate(-249.126 -355.608)" fill="#f0d0b4"/>
        <path id="Path_982855" data-name="Path 982855" d="M428.85,250.794a3.091,3.091,0,0,1-.917,2.205l-2,2.01L421.52,250.6l2-2.01a3.123,3.123,0,0,1,5.328,2.205Zm0,0" transform="translate(-375.04 -220.369)" fill="#ffeaa7"/>
        <path id="Path_982856" data-name="Path 982856" d="M54.692,30.429a4,4,0,0,0-6.83-2.829l-3.756,3.756V0H9.338L0,9.338V54.693H44.106V42.672l9.414-9.414a3.975,3.975,0,0,0,1.172-2.829ZM33.077,45.756l2.3,2.3-3.213.938Zm3.972,1.477-.957-.957,12.594-12.6.958.958Zm-2.205-2.2-.958-.958,12.6-12.6.958.958ZM8.821,3.012v5.81H3.011ZM42.342,52.928H1.764V10.586h8.821V1.764H42.342V33.12L31.852,43.609,29.59,51.576l7.923-2.311,4.829-4.829ZM52.273,32.01l-1.38,1.38-3.163-3.163,1.38-1.38a2.237,2.237,0,0,1,3.163,3.163Zm0,0" transform="translate(0)"/>
        <path id="Path_982857" data-name="Path 982857" d="M46.343,330.617l-3.8,4.177a6.181,6.181,0,1,0,1.071,1.445l4.032-4.435Zm-3.758,8.533a4.435,4.435,0,1,1-1.232-3.044l-3.321,3.653-2.015-1.343-.979,1.468,3.278,2.186,4-4.4a4.374,4.374,0,0,1,.272,1.475Zm0,0" transform="translate(-28.472 -294.161)"/>
        <path id="Path_982858" data-name="Path 982858" d="M42.546,190.794a6.181,6.181,0,1,0,1.071,1.445l4.032-4.435-1.306-1.187Zm.039,4.356a4.435,4.435,0,1,1-1.232-3.044l-3.321,3.653-2.015-1.343-.979,1.468,3.278,2.186,4-4.4a4.374,4.374,0,0,1,.272,1.475Zm0,0" transform="translate(-28.472 -166.039)"/>
        <path id="Path_982859" data-name="Path 982859" d="M352,256h1.764v1.764H352Zm0,0" transform="translate(-313.187 -227.771)"/>
        <path id="Path_982860" data-name="Path 982860" d="M176,256h17.643v1.764H176Zm0,0" transform="translate(-156.594 -227.771)"/>
        <path id="Path_982861" data-name="Path 982861" d="M176,224h21.171v1.764H176Zm0,0" transform="translate(-156.594 -199.3)"/>
        <path id="Path_982862" data-name="Path 982862" d="M176,288h21.171v1.764H176Zm0,0" transform="translate(-156.594 -256.243)"/>
        <path id="Path_982863" data-name="Path 982863" d="M176,400h9.7v1.764H176Zm0,0" transform="translate(-156.594 -355.893)"/>
        <path id="Path_982864" data-name="Path 982864" d="M176,432h9.7v1.764H176Zm0,0" transform="translate(-156.594 -384.365)"/>
        <path id="Path_982865" data-name="Path 982865" d="M176,368h9.7v1.764H176Zm0,0" transform="translate(-156.594 -327.422)"/>
        <path id="Path_982866" data-name="Path 982866" d="M116.411,47.878h19.407a4.416,4.416,0,0,0,4.411-4.411V36.411A4.416,4.416,0,0,0,135.818,32H116.411A4.416,4.416,0,0,0,112,36.411v7.057A4.416,4.416,0,0,0,116.411,47.878Zm-2.646-11.468a2.65,2.65,0,0,1,2.646-2.646h19.407a2.65,2.65,0,0,1,2.646,2.646v7.057a2.65,2.65,0,0,1-2.646,2.646H116.411a2.65,2.65,0,0,1-2.646-2.646Zm0,0" transform="translate(-99.651 -28.471)"/>
        <path id="Path_982867" data-name="Path 982867" d="M293.293,80H288v5.293h5.293Zm-1.764,3.529h-1.764V81.764h1.764Zm0,0" transform="translate(-256.244 -71.178)"/>
        <path id="Path_982868" data-name="Path 982868" d="M221.293,80H216v5.293h5.293Zm-1.764,3.529h-1.764V81.764h1.764Zm0,0" transform="translate(-192.183 -71.178)"/>
        <path id="Path_982869" data-name="Path 982869" d="M149.293,80H144v5.293h5.293Zm-1.764,3.529h-1.764V81.764h1.764Zm0,0" transform="translate(-128.122 -71.178)"/>
      </g>
    </g>
  </g>
</svg>
