<svg xmlns="http://www.w3.org/2000/svg" xmlns:xlink="http://www.w3.org/1999/xlink" width="108" height="108" viewBox="0 0 108 108">
  <defs>
    <filter id="Path_904820" x="0" y="0" width="108" height="108" filterUnits="userSpaceOnUse">
      <feOffset dy="3" input="SourceAlpha"/>
      <feGaussianBlur stdDeviation="3" result="blur"/>
      <feFlood flood-opacity="0.161"/>
      <feComposite operator="in" in2="blur"/>
      <feComposite in="SourceGraphic"/>
    </filter>
  </defs>
  <g id="Group_1164514" data-name="Group 1164514" transform="translate(-618.5 -1531.012)">
    <g id="Group_1164445" data-name="Group 1164445" transform="translate(-0.5)">
      <g id="Group_1164325" data-name="Group 1164325" transform="translate(628 1537.012)">
        <g id="Group_1164000" data-name="Group 1164000">
          <g id="Icono">
            <g transform="matrix(1, 0, 0, 1, -9, -6)" filter="url(#Path_904820)">
              <g id="Path_904820-2" data-name="Path 904820" transform="translate(9 6)" fill="#fefcf6">
                <path d="M 45 88.5 C 39.12687683105469 88.5 33.43022537231445 87.35007476806641 28.06830024719238 85.08217620849609 C 22.88852500915527 82.89131164550781 18.23629951477051 79.75458526611328 14.2408504486084 75.75914764404297 C 10.24541282653809 71.76370239257812 7.108687400817871 67.11147308349609 4.917825222015381 61.93170166015625 C 2.649924993515015 56.56977462768555 1.5 50.87312316894531 1.5 45 C 1.5 39.12687683105469 2.649924993515015 33.43022537231445 4.917825222015381 28.06830024719238 C 7.108687400817871 22.88852500915527 10.24541282653809 18.23629951477051 14.2408504486084 14.2408504486084 C 18.23629951477051 10.24541282653809 22.88852500915527 7.108687400817871 28.06830024719238 4.917825222015381 C 33.43022537231445 2.649924993515015 39.12687683105469 1.5 45 1.5 C 50.87312316894531 1.5 56.56977462768555 2.649924993515015 61.93170166015625 4.917825222015381 C 67.11147308349609 7.108687400817871 71.76370239257812 10.24541282653809 75.75914764404297 14.2408504486084 C 79.75458526611328 18.23629951477051 82.89131164550781 22.88852500915527 85.08217620849609 28.06830024719238 C 87.35007476806641 33.43022537231445 88.5 39.12687683105469 88.5 45 C 88.5 50.87312316894531 87.35007476806641 56.56977462768555 85.08217620849609 61.93170166015625 C 82.89131164550781 67.11147308349609 79.75458526611328 71.76370239257812 75.75914764404297 75.75914764404297 C 71.76370239257812 79.75458526611328 67.11147308349609 82.89131164550781 61.93170166015625 85.08217620849609 C 56.56977462768555 87.35007476806641 50.87312316894531 88.5 45 88.5 Z" stroke="none"/>
                <path d="M 45 3 C 39.32871246337891 3 33.82865524291992 4.110054016113281 28.65262985229492 6.299339294433594 C 23.65165710449219 8.414573669433594 19.15968322753906 11.44334411621094 15.301513671875 15.301513671875 C 11.44334411621094 19.15968322753906 8.414573669433594 23.65165710449219 6.299339294433594 28.65262985229492 C 4.110054016113281 33.82865524291992 3 39.32871246337891 3 45 C 3 50.67128753662109 4.110054016113281 56.17134475708008 6.299339294433594 61.34737396240234 C 8.414573669433594 66.34834289550781 11.44334411621094 70.84031677246094 15.301513671875 74.698486328125 C 19.15968322753906 78.55665588378906 23.65165710449219 81.58542633056641 28.65262985229492 83.70066070556641 C 33.82865524291992 85.88994598388672 39.32871246337891 87 45 87 C 50.67128753662109 87 56.17134475708008 85.88994598388672 61.34737396240234 83.70066070556641 C 66.34834289550781 81.58542633056641 70.84031677246094 78.55665588378906 74.698486328125 74.698486328125 C 78.55665588378906 70.84031677246094 81.58542633056641 66.34834289550781 83.70066070556641 61.34737396240234 C 85.88994598388672 56.17134475708008 87 50.67128753662109 87 45 C 87 39.32871246337891 85.88994598388672 33.82865524291992 83.70066070556641 28.65262985229492 C 81.58542633056641 23.65165710449219 78.55665588378906 19.15968322753906 74.698486328125 15.301513671875 C 70.84031677246094 11.44334411621094 66.34834289550781 8.414573669433594 61.34737396240234 6.299339294433594 C 56.17134475708008 4.110054016113281 50.67128753662109 3 45 3 M 45 0 C 69.85281372070312 0 90 20.14718627929688 90 45 C 90 69.85281372070312 69.85281372070312 90 45 90 C 20.14718627929688 90 0 69.85281372070312 0 45 C 0 20.14718627929688 20.14718627929688 0 45 0 Z" stroke="none" fill="#86815c"/>
              </g>
            </g>
          </g>
        </g>
      </g>
      <g id="contract_310992" transform="translate(633.005 1555.444)">
        <path id="Path_982807" data-name="Path 982807" d="M66.041,56.807v2.351a2.322,2.322,0,0,1-2.322,2.322H26.575a2.322,2.322,0,0,1-2.322-2.322V10.406a2.322,2.322,0,0,1,2.322-2.322H63.719a2.321,2.321,0,0,1,2.322,2.322v46.4Z" transform="translate(-7.214 -7.213)" fill="#ace5ac"/>
        <path id="Path_982808" data-name="Path 982808" d="M278.8,307.822a8.706,8.706,0,1,1-8.706-8.706A8.706,8.706,0,0,1,278.8,307.822Z" transform="translate(-218.814 -266.905)" fill="#fe9d5e"/>
        <path id="Path_982809" data-name="Path 982809" d="M312.631,346.295a4.063,4.063,0,1,1-4.063-4.063A4.063,4.063,0,0,1,312.631,346.295Z" transform="translate(-257.287 -305.378)" fill="#fe5a3a"/>
        <path id="Path_982810" data-name="Path 982810" d="M391.151,385.078v3.511l-1.527,8.145a1.4,1.4,0,0,1-2.749,0l-1.527-8.145v-3.511Z" transform="translate(-329.423 -343.61)" fill="#feaf50"/>
        <path id="Path_982811" data-name="Path 982811" d="M388.25,385.078v12.8a1.4,1.4,0,0,1-1.375-1.141l-1.527-8.145v-3.511Z" transform="translate(-329.424 -343.61)" fill="#fe9443"/>
        <path id="Path_982812" data-name="Path 982812" d="M381.533,52.194h-5.8a1.161,1.161,0,0,1-1.161-1.161V12.148a4.063,4.063,0,0,1,4.063-4.063h0a4.063,4.063,0,0,1,4.063,4.063V51.033A1.161,1.161,0,0,1,381.533,52.194Z" transform="translate(-319.805 -7.214)" fill="#6583b7"/>
        <path id="Path_982813" data-name="Path 982813" d="M379.5,52.194h-3.773a1.161,1.161,0,0,1-1.161-1.161V12.148a4.063,4.063,0,0,1,4.063-4.063h0a4.075,4.075,0,0,1,.871.094V52.194Z" transform="translate(-319.804 -7.214)" fill="#355072"/>
        <path id="Path_982814" data-name="Path 982814" d="M426.555,56.672h0a3.482,3.482,0,0,1-3.482-3.482V42.743a2.322,2.322,0,0,1,2.322-2.322h2.322a2.322,2.322,0,0,1,2.322,2.322V53.189A3.482,3.482,0,0,1,426.555,56.672Z" transform="translate(-363.086 -36.068)" fill="#fe9443"/>
        <path id="Path_982815" data-name="Path 982815" d="M449.674,41a4.108,4.108,0,0,0-.042-.58h1.783a2.322,2.322,0,0,1,2.322,2.322V53.191a3.48,3.48,0,0,1-4.063,3.433V41Z" transform="translate(-386.785 -36.069)" fill="#feaf50"/>
        <path id="Path_982816" data-name="Path 982816" d="M29.807,44.109a.871.871,0,1,1,0,1.741H25.164a.871.871,0,1,1,0-1.741h4.643ZM31.548,15.09a.871.871,0,0,0,0,1.741H44.317a.871.871,0,0,0,0-1.741Zm20.023-3.772a.87.87,0,0,0-.871-.871H25.164a.871.871,0,0,0,0,1.741H50.7A.871.871,0,0,0,51.571,11.318Zm-8.125,29.6a7.844,7.844,0,0,1,7.835-7.835.871.871,0,1,0,0-1.741A9.576,9.576,0,1,0,53.2,50.3a.871.871,0,1,0-.347-1.706,7.843,7.843,0,0,1-9.4-7.678Zm-4.643-.58a.871.871,0,0,0-.871-.871H25.164a.871.871,0,1,0,0,1.741H37.932A.871.871,0,0,0,38.8,40.337ZM51.571,27.568A.87.87,0,0,0,50.7,26.7H25.164a.871.871,0,1,0,0,1.741H50.7A.87.87,0,0,0,51.571,27.568ZM67.822,6.674V17.121a4.359,4.359,0,0,1-4.063,4.343V43.819a2.035,2.035,0,0,1-1.282,1.888l-1.421,7.578a2.269,2.269,0,0,1-4.461,0l-1.421-7.578a2.034,2.034,0,0,1-1.282-1.888V4.933a4.934,4.934,0,0,1,9.649-1.451H64.63A3.2,3.2,0,0,1,67.822,6.674ZM60.679,45.85H56.973l1.334,7.114a.528.528,0,0,0,1.038,0Zm1.339-24.625a4.36,4.36,0,0,1-2.9-4.1V6.674A3.2,3.2,0,0,1,61.7,3.541a3.192,3.192,0,0,0-6.064,1.392V43.819a.291.291,0,0,0,.282.29h5.82a.291.291,0,0,0,.282-.29V21.226ZM66.081,6.674A1.453,1.453,0,0,0,64.63,5.223H62.308a1.453,1.453,0,0,0-1.451,1.451V17.121a2.612,2.612,0,1,0,5.224,0V6.674ZM54.183,53.4H19.36a1.453,1.453,0,0,1-1.451-1.451V3.192A1.453,1.453,0,0,1,19.36,1.741h32.5a.871.871,0,1,0,0-1.741H19.36a3.2,3.2,0,0,0-3.192,3.192V51.944a3.2,3.2,0,0,0,3.192,3.192H54.183a.871.871,0,0,0,0-1.741ZM25.164,23.8H50.7a.871.871,0,0,0,0-1.741H25.164a.871.871,0,0,0,0,1.741ZM51.281,37.725a.871.871,0,0,0,0-1.741,4.933,4.933,0,1,0,0,9.867.871.871,0,0,0,0-1.741,3.192,3.192,0,0,1,0-6.384Z"/>
      </g>
    </g>
  </g>
</svg>
