<svg xmlns="http://www.w3.org/2000/svg" xmlns:xlink="http://www.w3.org/1999/xlink" width="108" height="108" viewBox="0 0 108 108">
  <defs>
    <filter id="Path_978624" x="0" y="0" width="108" height="108" filterUnits="userSpaceOnUse">
      <feOffset dy="3" input="SourceAlpha"/>
      <feGaussianBlur stdDeviation="3" result="blur"/>
      <feFlood flood-opacity="0.161"/>
      <feComposite operator="in" in2="blur"/>
      <feComposite in="SourceGraphic"/>
    </filter>
  </defs>
  <g id="Group_1164489" data-name="Group 1164489" transform="translate(-198 -4183)">
    <g id="Group_1164395" data-name="Group 1164395">
      <g id="Group_1164274" data-name="Group 1164274" transform="translate(207 4189)">
        <g id="Group_1144123" data-name="Group 1144123">
          <g transform="matrix(1, 0, 0, 1, -9, -6)" filter="url(#Path_978624)">
            <g id="Path_978624-2" data-name="Path 978624" transform="translate(9 6)" fill="#fcf9e5">
              <path d="M 45 88.5 C 39.12687683105469 88.5 33.43022537231445 87.35007476806641 28.06830024719238 85.08217620849609 C 22.88852500915527 82.89131164550781 18.23629951477051 79.75458526611328 14.2408504486084 75.75914764404297 C 10.24541282653809 71.76370239257812 7.108687400817871 67.11147308349609 4.917825222015381 61.93170166015625 C 2.649924993515015 56.56977462768555 1.5 50.87312316894531 1.5 45 C 1.5 39.12687683105469 2.649924993515015 33.43022537231445 4.917825222015381 28.06830024719238 C 7.108687400817871 22.88852500915527 10.24541282653809 18.23629951477051 14.2408504486084 14.2408504486084 C 18.23629951477051 10.24541282653809 22.88852500915527 7.108687400817871 28.06830024719238 4.917825222015381 C 33.43022537231445 2.649924993515015 39.12687683105469 1.5 45 1.5 C 50.87312316894531 1.5 56.56977462768555 2.649924993515015 61.93170166015625 4.917825222015381 C 67.11147308349609 7.108687400817871 71.76370239257812 10.24541282653809 75.75914764404297 14.2408504486084 C 79.75458526611328 18.23629951477051 82.89131164550781 22.88852500915527 85.08217620849609 28.06830024719238 C 87.35007476806641 33.43022537231445 88.5 39.12687683105469 88.5 45 C 88.5 50.87312316894531 87.35007476806641 56.56977462768555 85.08217620849609 61.93170166015625 C 82.89131164550781 67.11147308349609 79.75458526611328 71.76370239257812 75.75914764404297 75.75914764404297 C 71.76370239257812 79.75458526611328 67.11147308349609 82.89131164550781 61.93170166015625 85.08217620849609 C 56.56977462768555 87.35007476806641 50.87312316894531 88.5 45 88.5 Z" stroke="none"/>
              <path d="M 45 3 C 39.32871246337891 3 33.82865524291992 4.110054016113281 28.65262985229492 6.299339294433594 C 23.65165710449219 8.414573669433594 19.15968322753906 11.44334411621094 15.301513671875 15.301513671875 C 11.44334411621094 19.15968322753906 8.414573669433594 23.65165710449219 6.299339294433594 28.65262985229492 C 4.110054016113281 33.82865524291992 3 39.32871246337891 3 45 C 3 50.67128753662109 4.110054016113281 56.17134475708008 6.299339294433594 61.34737396240234 C 8.414573669433594 66.34834289550781 11.44334411621094 70.84031677246094 15.301513671875 74.698486328125 C 19.15968322753906 78.55665588378906 23.65165710449219 81.58542633056641 28.65262985229492 83.70066070556641 C 33.82865524291992 85.88994598388672 39.32871246337891 87 45 87 C 50.67128753662109 87 56.17134475708008 85.88994598388672 61.34737396240234 83.70066070556641 C 66.34834289550781 81.58542633056641 70.84031677246094 78.55665588378906 74.698486328125 74.698486328125 C 78.55665588378906 70.84031677246094 81.58542633056641 66.34834289550781 83.70066070556641 61.34737396240234 C 85.88994598388672 56.17134475708008 87 50.67128753662109 87 45 C 87 39.32871246337891 85.88994598388672 33.82865524291992 83.70066070556641 28.65262985229492 C 81.58542633056641 23.65165710449219 78.55665588378906 19.15968322753906 74.698486328125 15.301513671875 C 70.84031677246094 11.44334411621094 66.34834289550781 8.414573669433594 61.34737396240234 6.299339294433594 C 56.17134475708008 4.110054016113281 50.67128753662109 3 45 3 M 45 0 C 69.85281372070312 0 90 20.14718627929688 90 45 C 90 69.85281372070312 69.85281372070312 90 45 90 C 20.14718627929688 90 0 69.85281372070312 0 45 C 0 20.14718627929688 20.14718627929688 0 45 0 Z" stroke="none" fill="#bcac89"/>
            </g>
          </g>
        </g>
      </g>
      <g id="law_13375020" transform="translate(214.512 4183.056)">
        <g id="Group_1164391" data-name="Group 1164391" transform="translate(7.5 21.665)">
          <g id="Group_1164389" data-name="Group 1164389" transform="translate(10.218 0)">
            <g id="Group_1164388" data-name="Group 1164388" transform="translate(0 1.947)">
              <g id="Group_1164385" data-name="Group 1164385" transform="translate(0 14.427)">
                <path id="Path_982701" data-name="Path 982701" d="M96.289,161.678a4.253,4.253,0,0,0,4.07-3.025,1.014,1.014,0,0,0-.973-1.3H93.191a1.014,1.014,0,0,0-.973,1.3A4.253,4.253,0,0,0,96.289,161.678Z" transform="translate(-92.175 -157.351)" fill="#3b5a9b"/>
              </g>
              <g id="Group_1164386" data-name="Group 1164386" transform="translate(31.312 14.427)">
                <path id="Path_982702" data-name="Path 982702" d="M355.761,161.678a4.253,4.253,0,0,1-4.07-3.025,1.014,1.014,0,0,1,.973-1.3h6.194a1.014,1.014,0,0,1,.973,1.3A4.253,4.253,0,0,1,355.761,161.678Z" transform="translate(-351.647 -157.351)" fill="#4a66a0"/>
              </g>
              <g id="Group_1164387" data-name="Group 1164387" transform="translate(1.999)">
                <path id="Path_982703" data-name="Path 982703" d="M126.507,42.029c-7.89,0-11.4,1.523-13.9,3.673-1.358,1.165-2.433.9-2.93.578a2.1,2.1,0,0,1-.578-2.93c2.259-3.368,9.093-5.544,17.41-5.544Z" transform="translate(-108.736 -37.805)" fill="#3b5a9b"/>
                <path id="Path_982704" data-name="Path 982704" d="M256,37.805c8.318,0,15.152,2.176,17.41,5.544a2.1,2.1,0,0,1-.578,2.93c-.5.32-1.572.587-2.93-.578-2.506-2.149-6.012-3.673-13.9-3.673Z" transform="translate(-238.229 -37.805)" fill="#4a66a0"/>
              </g>
            </g>
            <path id="Path_982705" data-name="Path 982705" d="M240.242,49.126h-5.014V24.174a2.507,2.507,0,0,1,5.014,0V49.126Z" transform="translate(-217.965 -21.667)" fill="#b7745c"/>
            <path id="Path_982706" data-name="Path 982706" d="M224.353,225.247a2.925,2.925,0,0,1-2.924,2.924H209.938c-4.034,0-5.041-1.309-5.041-2.924a2.911,2.911,0,0,1,.857-2.068c.529-.53,1.158-.857,4.184-.857h11.491A2.925,2.925,0,0,1,224.353,225.247Z" transform="translate(-191.294 -198.107)" fill="#4a66a0"/>
            <path id="Path_982707" data-name="Path 982707" d="M158.043,228.171H148.8a2.925,2.925,0,0,1,0-5.849h9.239a2.925,2.925,0,0,0,0,5.849Z" transform="translate(-139.399 -198.107)" fill="#3b5a9b"/>
          </g>
          <g id="Group_1164390" data-name="Group 1164390" transform="translate(0 35.783)">
            <path id="Path_982708" data-name="Path 982708" d="M195.018,323.246V329.3H160.37c-3.848-2.81-4.578-8.968-.357-10.943a10.349,10.349,0,0,1,9.068,2.713c8.674-7.457,15.389,2.038,24.3.76A1.432,1.432,0,0,1,195.018,323.246Z" transform="translate(-139.092 -318.181)" fill="#f8f8ff"/>
            <path id="Path_982709" data-name="Path 982709" d="M58.288,330.565H41.06v-6.052A1.432,1.432,0,0,1,42.7,323.1c5.6.8,10.336-2.65,15.234-3.473C55.839,322.066,55.765,326.584,58.288,330.565Z" transform="translate(-37.01 -319.448)" fill="#deddf5"/>
            <path id="Path_982710" data-name="Path 982710" d="M170.083,399.788a3.576,3.576,0,0,1-3.577,3.577H129.625c-4.6,0-5.437-1.6-5.437-3.577a3.565,3.565,0,0,1,1.047-2.528c.647-.647,1.57-1.047,4.389-1.047h36.881A3.577,3.577,0,0,1,170.083,399.788Z" transform="translate(-110.106 -386.795)" fill="#00c5fd"/>
            <path id="Path_982711" data-name="Path 982711" d="M27.018,403.365H11.077a3.576,3.576,0,1,1,0-7.153H27.018a3.576,3.576,0,1,0,0,7.153Z" transform="translate(-7.5 -386.795)" fill="#00b4fd"/>
            <path id="Path_982712" data-name="Path 982712" d="M244.888,396.212v7.308a4.047,4.047,0,0,1-2.246,3.626c-3.157-.457-3.885-2.037-3.885-3.626l1.639-7.308Z" transform="translate(-210.849 -386.795)" fill="#5972a5"/>
            <path id="Path_982713" data-name="Path 982713" d="M228.294,407.147a4.051,4.051,0,0,1-5.854-3.626v-7.308h3.608v7.308A4.047,4.047,0,0,0,228.294,407.147Z" transform="translate(-196.502 -386.795)" fill="#4a66a0"/>
          </g>
        </g>
        <g id="Group_1164394" data-name="Group 1164394" transform="translate(7.5 21.665)">
          <path id="Path_982714" data-name="Path 982714" d="M96.289,161.676a4.253,4.253,0,0,0,4.07-3.025,1.014,1.014,0,0,0-.973-1.3H93.191a1.014,1.014,0,0,0-.973,1.3A4.253,4.253,0,0,0,96.289,161.676Z" transform="translate(-81.956 -140.975)" fill="none" stroke="#000" stroke-linecap="round" stroke-linejoin="round" stroke-miterlimit="10" stroke-width="1"/>
          <path id="Path_982715" data-name="Path 982715" d="M355.761,161.676a4.253,4.253,0,0,1-4.07-3.025,1.014,1.014,0,0,1,.973-1.3h6.194a1.014,1.014,0,0,1,.973,1.3A4.253,4.253,0,0,1,355.761,161.676Z" transform="translate(-310.116 -140.975)" fill="none" stroke="#000" stroke-linecap="round" stroke-linejoin="round" stroke-miterlimit="10" stroke-width="1"/>
          <g id="Group_1164392" data-name="Group 1164392" transform="translate(11.234 10.495)">
            <line id="Line_628" data-name="Line 628" x1="2.363" y1="5.879" transform="translate(3.832)" fill="none" stroke="#000" stroke-linecap="round" stroke-linejoin="round" stroke-miterlimit="10" stroke-width="1"/>
            <line id="Line_629" data-name="Line 629" x1="2.318" y2="5.767" transform="translate(0 0.111)" fill="none" stroke="#000" stroke-linecap="round" stroke-linejoin="round" stroke-miterlimit="10" stroke-width="1"/>
            <line id="Line_630" data-name="Line 630" x1="2.318" y1="5.767" transform="translate(35.189 0.111)" fill="none" stroke="#000" stroke-linecap="round" stroke-linejoin="round" stroke-miterlimit="10" stroke-width="1"/>
            <line id="Line_631" data-name="Line 631" x1="2.363" y2="5.879" transform="translate(31.313)" fill="none" stroke="#000" stroke-linecap="round" stroke-linejoin="round" stroke-miterlimit="10" stroke-width="1"/>
          </g>
          <path id="Path_982716" data-name="Path 982716" d="M169.53,228.172H148.8a2.925,2.925,0,0,1,0-5.849h20.73a2.925,2.925,0,1,1,0,5.849Z" transform="translate(-129.177 -198.108)" fill="none" stroke="#000" stroke-linecap="round" stroke-linejoin="round" stroke-miterlimit="10" stroke-width="1"/>
          <g id="Group_1164393" data-name="Group 1164393" transform="translate(12.217 2.013)">
            <path id="Path_982717" data-name="Path 982717" d="M190.637,38.349a37.859,37.859,0,0,0-6.175.816" transform="translate(-175.324 -38.349)" fill="none" stroke="#000" stroke-linecap="round" stroke-linejoin="round" stroke-miterlimit="10" stroke-width="1"/>
            <path id="Path_982718" data-name="Path 982718" d="M113.839,55.422A10.358,10.358,0,0,0,109.1,58.84a2.1,2.1,0,0,0,.578,2.93c.5.32,1.572.587,2.93-.578,2.223-1.907,5.236-3.32,11.4-3.615" transform="translate(-108.737 -53.362)" fill="none" stroke="#000" stroke-linecap="round" stroke-linejoin="round" stroke-miterlimit="10" stroke-width="1"/>
            <path id="Path_982719" data-name="Path 982719" d="M276.416,42.565c6.159.3,9.172,1.708,11.4,3.615,1.358,1.165,2.433.9,2.93.578a2.1,2.1,0,0,0,.578-2.93c-2.032-3.029-7.767-5.094-14.953-5.478" transform="translate(-256.138 -38.349)" fill="none" stroke="#000" stroke-linecap="round" stroke-linejoin="round" stroke-miterlimit="10" stroke-width="1"/>
          </g>
          <line id="Line_632" data-name="Line 632" y2="6.529" transform="translate(29.988 38.669)" fill="none" stroke="#000" stroke-linecap="round" stroke-linejoin="round" stroke-miterlimit="10" stroke-width="1"/>
          <path id="Path_982720" data-name="Path 982720" d="M230.537,396.207v7.309a4.05,4.05,0,1,1-8.1,0v-7.309" transform="translate(-196.498 -351.008)" fill="none" stroke="#000" stroke-linecap="round" stroke-linejoin="round" stroke-miterlimit="10" stroke-width="1"/>
          <path id="Path_982721" data-name="Path 982721" d="M92.94,327.593v-4.351a1.432,1.432,0,0,0-1.636-1.418c-8.914,1.278-15.628-8.217-24.3-.76-8.674-7.457-15.389,2.038-24.3.76a1.432,1.432,0,0,0-1.636,1.418v4.351" transform="translate(-37.014 -282.394)" fill="none" stroke="#000" stroke-linecap="round" stroke-linejoin="round" stroke-miterlimit="10" stroke-width="1"/>
          <line id="Line_633" data-name="Line 633" x2="14.703" transform="translate(34.039 52.352)" fill="none" stroke="#000" stroke-linecap="round" stroke-linejoin="round" stroke-miterlimit="10" stroke-width="1"/>
          <path id="Path_982722" data-name="Path 982722" d="M60.466,403.361H63.9a3.576,3.576,0,0,0,0-7.153H11.076a3.576,3.576,0,0,0,0,7.153H33.438" transform="translate(-7.5 -351.009)" fill="none" stroke="#000" stroke-linecap="round" stroke-linejoin="round" stroke-miterlimit="10" stroke-width="1"/>
          <path id="Path_982723" data-name="Path 982723" d="M240.241,45.88V24.172a2.507,2.507,0,0,0-5.014,0V45.88" transform="translate(-207.745 -21.665)" fill="none" stroke="#000" stroke-linecap="round" stroke-linejoin="round" stroke-miterlimit="10" stroke-width="1"/>
        </g>
      </g>
    </g>
  </g>
</svg>
