<svg xmlns="http://www.w3.org/2000/svg" xmlns:xlink="http://www.w3.org/1999/xlink" width="113" height="113" viewBox="0 0 113 113">
  <defs>
    <filter id="Path_982547" x="0" y="0" width="113" height="113" filterUnits="userSpaceOnUse">
      <feOffset dy="3" input="SourceAlpha"/>
      <feGaussianBlur stdDeviation="3" result="blur"/>
      <feFlood flood-opacity="0.161"/>
      <feComposite operator="in" in2="blur"/>
      <feComposite in="SourceGraphic"/>
    </filter>
  </defs>
  <g id="Group_1164471" data-name="Group 1164471" transform="translate(-906.734 -618.467)">
    <g id="Group_1164358" data-name="Group 1164358">
      <g id="Group_1164264" data-name="Group 1164264" transform="translate(4.5 -489)">
        <g id="Group_1163950" data-name="Group 1163950" transform="translate(0 -1371)">
          <g id="Group_1161820" data-name="Group 1161820" transform="translate(911.234 2484.467)">
            <g id="Group_1152576" data-name="Group 1152576" transform="translate(0)">
              <g id="Group_1148633" data-name="Group 1148633">
                <g id="Group_1148525" data-name="Group 1148525">
                  <g transform="matrix(1, 0, 0, 1, -9, -6)" filter="url(#Path_982547)">
                    <g id="Path_982547-2" data-name="Path 982547" transform="translate(9 6)" fill="#f4fdfe">
                      <path d="M 47.5 93.5 C 41.28937149047852 93.5 35.26533508300781 92.28397369384766 29.59518623352051 89.88570404052734 C 24.11771965026855 87.56893157958984 19.19813346862793 84.25196075439453 14.97309303283691 80.02691650390625 C 10.74804019927979 75.80186462402344 7.431066513061523 70.88229370117188 5.114293098449707 65.40481567382812 C 2.716026782989502 59.73468017578125 1.5 53.71062850952148 1.5 47.5 C 1.5 41.28937149047852 2.716026782989502 35.26533508300781 5.114293098449707 29.59518623352051 C 7.431066513061523 24.11771965026855 10.74804019927979 19.19813346862793 14.97309303283691 14.97309303283691 C 19.19813346862793 10.74804019927979 24.11771965026855 7.431066513061523 29.59518623352051 5.114293098449707 C 35.26533508300781 2.716026782989502 41.28937149047852 1.5 47.5 1.5 C 53.71062850952148 1.5 59.73468017578125 2.716026782989502 65.40481567382812 5.114293098449707 C 70.88229370117188 7.431066513061523 75.80186462402344 10.74804019927979 80.02691650390625 14.97309303283691 C 84.25196075439453 19.19813346862793 87.56893157958984 24.11771965026855 89.88570404052734 29.59518623352051 C 92.28397369384766 35.26533508300781 93.5 41.28937149047852 93.5 47.5 C 93.5 53.71062850952148 92.28397369384766 59.73468017578125 89.88570404052734 65.40481567382812 C 87.56893157958984 70.88229370117188 84.25196075439453 75.80186462402344 80.02691650390625 80.02691650390625 C 75.80186462402344 84.25196075439453 70.88229370117188 87.56893157958984 65.40481567382812 89.88570404052734 C 59.73468017578125 92.28397369384766 53.71062850952148 93.5 47.5 93.5 Z" stroke="none"/>
                      <path d="M 47.5 3 C 41.49121475219727 3 35.66376876831055 4.176155090332031 30.17950439453125 6.495796203613281 C 24.88084411621094 8.736953735351562 20.12152099609375 11.94598388671875 16.03375244140625 16.03375244140625 C 11.94598388671875 20.12152099609375 8.736953735351562 24.88084411621094 6.495796203613281 30.17950439453125 C 4.176155090332031 35.66376876831055 3 41.49121475219727 3 47.5 C 3 53.50878524780273 4.176155090332031 59.33623123168945 6.495796203613281 64.82049560546875 C 8.736953735351562 70.11915588378906 11.94598388671875 74.87847900390625 16.03375244140625 78.96624755859375 C 20.12152099609375 83.05401611328125 24.88084411621094 86.26304626464844 30.17950439453125 88.50419616699219 C 35.66376876831055 90.82384490966797 41.49121475219727 92 47.5 92 C 53.50878524780273 92 59.33623123168945 90.82384490966797 64.82049560546875 88.50419616699219 C 70.11915588378906 86.26304626464844 74.87847900390625 83.05401611328125 78.96624755859375 78.96624755859375 C 83.05401611328125 74.87847900390625 86.26304626464844 70.11915588378906 88.50419616699219 64.82049560546875 C 90.82384490966797 59.33623123168945 92 53.50878524780273 92 47.5 C 92 41.49121475219727 90.82384490966797 35.66376876831055 88.50419616699219 30.17950439453125 C 86.26304626464844 24.88084411621094 83.05401611328125 20.12152099609375 78.96624755859375 16.03375244140625 C 74.87847900390625 11.94598388671875 70.11915588378906 8.736953735351562 64.82049560546875 6.495796203613281 C 59.33623123168945 4.176155090332031 53.50878524780273 3 47.5 3 M 47.5 0 C 73.7335205078125 0 95 21.2664794921875 95 47.5 C 95 73.7335205078125 73.7335205078125 95 47.5 95 C 21.2664794921875 95 0 73.7335205078125 0 47.5 C 0 21.2664794921875 21.2664794921875 0 47.5 0 Z" stroke="none" fill="#56838a"/>
                    </g>
                  </g>
                </g>
              </g>
            </g>
          </g>
        </g>
      </g>
      <g id="Layer_x0020_1" transform="translate(932.07 619.8)">
        <path id="Path_982613" data-name="Path 982613" d="M17.122,49.484a1.062,1.062,0,0,1-.753-.308l-3.662-3.662a1.029,1.029,0,0,1,1.472-1.438l2.944,2.944,9.652-9.687c.958-.958,2.43.513,1.472,1.438L17.84,49.176A.985.985,0,0,1,17.122,49.484ZM58.333,80.564H17.327A1.03,1.03,0,0,1,16.3,79.537V71.322A1.03,1.03,0,0,1,17.327,70.3h2.088V66.872c-3.628,0-3.115.479-3.115-4.587a19.476,19.476,0,1,1,13.828-35.94c0-1.027-.24-2.567,1.027-2.567H47.619a1.03,1.03,0,0,1,1.027,1.027v5.477h9.687a1.053,1.053,0,0,1,1.027,1.027V79.537A1.053,1.053,0,0,1,58.333,80.564ZM22.564,78.51V72.349h-4.21V78.51Zm0-13.691V61.464a1.062,1.062,0,0,1,.856-1.027A16.917,16.917,0,0,0,30.5,57.528a17.216,17.216,0,0,0,3.56-3.286l.65-.924A17.451,17.451,0,0,0,20.476,25.832a17.431,17.431,0,0,0-2.978,34.6,1.062,1.062,0,0,1,.856,1.027v3.354ZM37.693,34.184h5.682c0-4.279-.479-3.9,3.217-3.9v-4.45H32.182v1.883A19.308,19.308,0,0,1,37.693,34.184ZM24.618,78.51H57.306V32.336H45.428v1.848h9.036a1.03,1.03,0,0,1,1.027,1.027V75.669a1.023,1.023,0,0,1-1.027.993H24.618ZM38.651,36.238a18.056,18.056,0,0,1,.821,2.636h7.564a1.027,1.027,0,1,1,0,2.054H39.815A19.543,19.543,0,0,1,38.206,51.4L36.6,54.208l-1.232,1.643L33.688,57.6l-1.883,1.54a17.427,17.427,0,0,1-2.464,1.472,18.459,18.459,0,0,1-4.724,1.677v3.765a1.032,1.032,0,0,1-1.027.821H21.469V70.3h2.122a1.03,1.03,0,0,1,1.027,1.027v3.32h28.82v-38.4ZM50.6,45.377H42.382a1.027,1.027,0,0,1,0-2.054H50.6A1.027,1.027,0,0,1,50.6,45.377Zm0,17.73H33.688a1.027,1.027,0,0,1,0-2.054H50.6A1.027,1.027,0,0,1,50.6,63.107Zm0,4.45H30.368a1.027,1.027,0,0,1,0-2.054H50.6A1.027,1.027,0,1,1,50.6,67.557Zm0,4.415H48.235a1.027,1.027,0,0,1,0-2.054H50.6A1.027,1.027,0,0,1,50.6,71.972Zm0-17.73H40.945a1.027,1.027,0,0,1,0-2.054H50.6A1.027,1.027,0,1,1,50.6,54.242Zm-5.956,17.73H42.279a1.027,1.027,0,0,1,0-2.054h2.362A1.027,1.027,0,0,1,44.641,71.972Zm-5.956,0H36.324a1.027,1.027,0,0,1,0-2.054h2.362A1.027,1.027,0,0,1,38.685,71.972Zm-5.956,0H30.368a1.027,1.027,0,0,1,0-2.054H32.73A1.027,1.027,0,0,1,32.73,71.972Zm9.1-13.315h-5a1.027,1.027,0,0,1,0-2.054h5A1.027,1.027,0,0,1,41.834,58.657ZM50.6,49.792h-5a1.027,1.027,0,0,1,0-2.054h5A1.027,1.027,0,1,1,50.6,49.792Zm0,8.865h-5a1.027,1.027,0,0,1,0-2.054h5A1.027,1.027,0,0,1,50.6,58.657Zm-30.121.034A15.42,15.42,0,1,1,35.913,43.255,15.441,15.441,0,0,1,20.476,58.692Zm0-28.82A13.383,13.383,0,1,0,33.859,43.255,13.4,13.4,0,0,0,20.476,29.871Z" transform="translate(0 0)" fill-rule="evenodd"/>
        <path id="Path_982614" data-name="Path 982614" d="M200.153,210.9,189.748,221.3a.985.985,0,0,1-.719.308,1.062,1.062,0,0,1-.753-.308l-3.662-3.662a1.029,1.029,0,0,1,1.472-1.438l2.944,2.944,9.652-9.687C199.64,208.5,201.112,209.975,200.153,210.9Zm-7.77,17.867A13.383,13.383,0,1,0,179,215.383,13.4,13.4,0,0,0,192.383,228.767Z" transform="translate(-171.907 -172.129)" fill="#9ff" fill-rule="evenodd"/>
        <path id="Path_982615" data-name="Path 982615" d="M78.422,86.019a15.42,15.42,0,1,1-15.437,15.4A15.433,15.433,0,0,1,78.422,86.019ZM88.451,115.7a17.216,17.216,0,0,0,3.56-3.286l.65-.924A17.451,17.451,0,0,0,78.422,84a17.431,17.431,0,0,0-2.978,34.6,1.062,1.062,0,0,1,.856,1.027v3.354h4.21v-3.354a1.062,1.062,0,0,1,.856-1.027A16.917,16.917,0,0,0,88.451,115.7Z" transform="translate(-57.946 -58.168)" fill="#25738b" fill-rule="evenodd"/>
        <path id="Path_982616" data-name="Path 982616" d="M912,85.883a19.309,19.309,0,0,1,5.511,6.469h5.682c0-4.279-.479-3.9,3.218-3.9V84H912Z" transform="translate(-879.818 -58.168)" fill="#ffa721" fill-rule="evenodd"/>
        <path id="Path_982617" data-name="Path 982617" d="M711.811,274v1.848h9.036a1.03,1.03,0,0,1,1.027,1.027v40.458a1.023,1.023,0,0,1-1.027.993H691v1.848h32.688V274Z" transform="translate(-666.382 -241.664)" fill="#ffa721" fill-rule="evenodd"/>
        <path id="Path_982618" data-name="Path 982618" d="M630.969,388H616.183a18.065,18.065,0,0,1,.822,2.636h7.564a1.027,1.027,0,0,1,0,2.054h-7.222a19.544,19.544,0,0,1-1.609,10.474l-1.609,2.807-1.232,1.643-1.677,1.746-1.883,1.54a17.421,17.421,0,0,1-2.464,1.472,18.46,18.46,0,0,1-4.724,1.677v3.765a1.032,1.032,0,0,1-1.027.821H599v3.423h2.122a1.03,1.03,0,0,1,1.027,1.027v3.32h28.82Zm-11.056,7.085h8.215a1.027,1.027,0,0,1,0,2.054h-8.215A1.027,1.027,0,0,1,619.914,395.085Zm3.217,4.415h5a1.027,1.027,0,0,1,0,2.054h-5A1.027,1.027,0,0,1,623.131,399.5Zm-4.655,4.45h9.652a1.027,1.027,0,0,1,0,2.054h-9.652A1.027,1.027,0,0,1,618.476,403.95Zm4.655,6.469a1.027,1.027,0,0,1,0-2.054h5a1.027,1.027,0,0,1,0,2.054Zm-11.911,2.4h16.909a1.027,1.027,0,0,1,0,2.054H611.219A1.027,1.027,0,0,1,611.219,412.816Zm-3.32,4.45h20.229a1.027,1.027,0,0,1,0,2.054H607.9A1.027,1.027,0,0,1,607.9,417.265Zm17.867,4.415h2.362a1.027,1.027,0,0,1,0,2.054h-2.362A1.027,1.027,0,0,1,625.767,421.681Zm-5.956,0h2.362a1.027,1.027,0,0,1,0,2.054h-2.362A1.027,1.027,0,0,1,619.811,421.681Zm-.445-13.315a1.027,1.027,0,0,1,0,2.054h-5a1.027,1.027,0,0,1,0-2.054Zm-5.511,13.315h2.362a1.027,1.027,0,0,1,0,2.054h-2.362A1.027,1.027,0,0,1,613.855,421.681Zm-3.594,0a1.027,1.027,0,0,1,0,2.054H607.9a1.027,1.027,0,0,1,0-2.054Z" transform="translate(-577.531 -351.762)" fill="#ffe4af" fill-rule="evenodd"/>
        <path id="Path_982619" data-name="Path 982619" d="M512.21,1449.161V1443H508v6.161Z" transform="translate(-489.646 -1370.651)" fill="#25738b" fill-rule="evenodd"/>
      </g>
    </g>
  </g>
</svg>
