<svg xmlns="http://www.w3.org/2000/svg" xmlns:xlink="http://www.w3.org/1999/xlink" width="108" height="108" viewBox="0 0 108 108">
  <defs>
    <filter id="Path_978624" x="0" y="0" width="108" height="108" filterUnits="userSpaceOnUse">
      <feOffset dy="3" input="SourceAlpha"/>
      <feGaussianBlur stdDeviation="3" result="blur"/>
      <feFlood flood-opacity="0.161"/>
      <feComposite operator="in" in2="blur"/>
      <feComposite in="SourceGraphic"/>
    </filter>
  </defs>
  <g id="Group_1164493" data-name="Group 1164493" transform="translate(-199 -618)">
    <g id="Group_1164399" data-name="Group 1164399">
      <g id="Group_1164275" data-name="Group 1164275" transform="translate(208 624)">
        <g transform="matrix(1, 0, 0, 1, -9, -6)" filter="url(#Path_978624)">
          <g id="Path_978624-2" data-name="Path 978624" transform="translate(9 6)" fill="#fcf9e5">
            <path d="M 45 88.5 C 39.12687683105469 88.5 33.43022537231445 87.35007476806641 28.06830024719238 85.08217620849609 C 22.88852500915527 82.89131164550781 18.23629951477051 79.75458526611328 14.2408504486084 75.75914764404297 C 10.24541282653809 71.76370239257812 7.108687400817871 67.11147308349609 4.917825222015381 61.93170166015625 C 2.649924993515015 56.56977462768555 1.5 50.87312316894531 1.5 45 C 1.5 39.12687683105469 2.649924993515015 33.43022537231445 4.917825222015381 28.06830024719238 C 7.108687400817871 22.88852500915527 10.24541282653809 18.23629951477051 14.2408504486084 14.2408504486084 C 18.23629951477051 10.24541282653809 22.88852500915527 7.108687400817871 28.06830024719238 4.917825222015381 C 33.43022537231445 2.649924993515015 39.12687683105469 1.5 45 1.5 C 50.87312316894531 1.5 56.56977462768555 2.649924993515015 61.93170166015625 4.917825222015381 C 67.11147308349609 7.108687400817871 71.76370239257812 10.24541282653809 75.75914764404297 14.2408504486084 C 79.75458526611328 18.23629951477051 82.89131164550781 22.88852500915527 85.08217620849609 28.06830024719238 C 87.35007476806641 33.43022537231445 88.5 39.12687683105469 88.5 45 C 88.5 50.87312316894531 87.35007476806641 56.56977462768555 85.08217620849609 61.93170166015625 C 82.89131164550781 67.11147308349609 79.75458526611328 71.76370239257812 75.75914764404297 75.75914764404297 C 71.76370239257812 79.75458526611328 67.11147308349609 82.89131164550781 61.93170166015625 85.08217620849609 C 56.56977462768555 87.35007476806641 50.87312316894531 88.5 45 88.5 Z" stroke="none"/>
            <path d="M 45 3 C 39.32871246337891 3 33.82865524291992 4.110054016113281 28.65262985229492 6.299339294433594 C 23.65165710449219 8.414573669433594 19.15968322753906 11.44334411621094 15.301513671875 15.301513671875 C 11.44334411621094 19.15968322753906 8.414573669433594 23.65165710449219 6.299339294433594 28.65262985229492 C 4.110054016113281 33.82865524291992 3 39.32871246337891 3 45 C 3 50.67128753662109 4.110054016113281 56.17134475708008 6.299339294433594 61.34737396240234 C 8.414573669433594 66.34834289550781 11.44334411621094 70.84031677246094 15.301513671875 74.698486328125 C 19.15968322753906 78.55665588378906 23.65165710449219 81.58542633056641 28.65262985229492 83.70066070556641 C 33.82865524291992 85.88994598388672 39.32871246337891 87 45 87 C 50.67128753662109 87 56.17134475708008 85.88994598388672 61.34737396240234 83.70066070556641 C 66.34834289550781 81.58542633056641 70.84031677246094 78.55665588378906 74.698486328125 74.698486328125 C 78.55665588378906 70.84031677246094 81.58542633056641 66.34834289550781 83.70066070556641 61.34737396240234 C 85.88994598388672 56.17134475708008 87 50.67128753662109 87 45 C 87 39.32871246337891 85.88994598388672 33.82865524291992 83.70066070556641 28.65262985229492 C 81.58542633056641 23.65165710449219 78.55665588378906 19.15968322753906 74.698486328125 15.301513671875 C 70.84031677246094 11.44334411621094 66.34834289550781 8.414573669433594 61.34737396240234 6.299339294433594 C 56.17134475708008 4.110054016113281 50.67128753662109 3 45 3 M 45 0 C 69.85281372070312 0 90 20.14718627929688 90 45 C 90 69.85281372070312 69.85281372070312 90 45 90 C 20.14718627929688 90 0 69.85281372070312 0 45 C 0 20.14718627929688 20.14718627929688 0 45 0 Z" stroke="none" fill="#86815c"/>
          </g>
        </g>
      </g>
      <g id="swear_2328393" transform="translate(227 643)">
        <g id="Group_1164397" data-name="Group 1164397" transform="translate(1.854 1.854)">
          <path id="Path_982724" data-name="Path 982724" d="M2.854,2H28.472a.856.856,0,0,1,.854.854V19.369a5.16,5.16,0,0,0-1.708-.29,1.713,1.713,0,0,0-1.708,1.708v1.708H20.787V26.56a1.056,1.056,0,0,1-2,.478l-2.272-4.543H2.854A.856.856,0,0,1,2,21.641V2.854A.856.856,0,0,1,2.854,2Z" transform="translate(-2 -2)" fill="#e6e9ed"/>
          <g id="Group_1164396" data-name="Group 1164396" transform="translate(0 10.247)">
            <path id="Path_982725" data-name="Path 982725" d="M28.832,14v2.562a.856.856,0,0,1-.854.854H22.854A.856.856,0,0,1,22,16.562V14Z" transform="translate(-4.921 -14)" fill="#b27946"/>
            <path id="Path_982726" data-name="Path 982726" d="M12.832,14v2.562a.856.856,0,0,1-.854.854H6.854A.856.856,0,0,1,6,16.562V14Z" transform="translate(-2.584 -14)" fill="#b27946"/>
            <path id="Path_982727" data-name="Path 982727" d="M15.663,34.854V38.27a.856.856,0,0,1-.854.854H2.854A.856.856,0,0,1,2,38.27V34.854A.856.856,0,0,1,2.854,34H14.809A.856.856,0,0,1,15.663,34.854Z" transform="translate(-2 -16.921)" fill="#b27946"/>
            <path id="Path_982728" data-name="Path 982728" d="M15.663,56.854V60.27a.856.856,0,0,1-.854.854H2.854A.856.856,0,0,1,2,60.27V56.854A.856.856,0,0,1,2.854,56H14.809A.856.856,0,0,1,15.663,56.854Z" transform="translate(-2 -20.134)" fill="#b27946"/>
          </g>
          <path id="Path_982729" data-name="Path 982729" d="M14.247,49.393v4.27H4V40H14.247v9.393Z" transform="translate(-2.292 -7.55)" fill="#d3a06c"/>
          <path id="Path_982730" data-name="Path 982730" d="M33.079,46.706v3.416H16V45H31.755l.009-.009A18.268,18.268,0,0,0,33.079,46.706Z" transform="translate(-4.045 -8.279)" fill="#cf9e76"/>
          <path id="Path_982731" data-name="Path 982731" d="M54.787,47V59.809H36V47Z" transform="translate(-6.966 -8.572)" fill="#b4dd7f"/>
          <path id="Path_982732" data-name="Path 982732" d="M52.2,14.809a2.562,2.562,0,0,1,5.124,0V29.147a20.322,20.322,0,0,1-3.416,11.281H35.124a18.269,18.269,0,0,1-1.315-1.716A21.244,21.244,0,0,1,30,26.577v-5.79a1.713,1.713,0,0,1,1.708-1.708,5.16,5.16,0,0,1,1.708.29l1.913,1.213a5.076,5.076,0,0,1,1.5,3.621V7.978a2.562,2.562,0,0,1,5.124,0V4.562a2.562,2.562,0,0,1,5.124,0V7.978a2.562,2.562,0,1,1,5.124,0Z" transform="translate(-6.089 -2)" fill="#f0d0b4"/>
        </g>
        <g id="Group_1164398" data-name="Group 1164398" transform="translate(1 1)">
          <path id="Path_982733" data-name="Path 982733" d="M53.945,14.663a3.419,3.419,0,0,0-3.416-3.416,3.381,3.381,0,0,0-1.708.475V7.832a3.419,3.419,0,0,0-3.416-3.416,3.381,3.381,0,0,0-1.708.475V4.416a3.416,3.416,0,0,0-6.832,0v.475a3.381,3.381,0,0,0-1.708-.475,3.419,3.419,0,0,0-3.416,3.416v12.05a5.989,5.989,0,0,0-1.708-1.217V2.708A1.71,1.71,0,0,0,28.326,1H2.708A1.71,1.71,0,0,0,1,2.708V21.495A1.71,1.71,0,0,0,2.708,23.2H15.843l2.034,4.068a1.909,1.909,0,0,0,3.617-.854V23.2h3.416v3.229a22.142,22.142,0,0,0,3.1,11.288H14.663V35.158a1.71,1.71,0,0,0,1.708-1.708V30.034a1.71,1.71,0,0,0-1.708-1.708H2.708A1.71,1.71,0,0,0,1,30.034V33.45a1.71,1.71,0,0,0,1.708,1.708V47.113A1.71,1.71,0,0,0,1,48.821v3.416a1.71,1.71,0,0,0,1.708,1.708H14.663a1.71,1.71,0,0,0,1.708-1.708V48.821a1.71,1.71,0,0,0-1.708-1.708V44.551H30.034v9.393H50.529V40.522A21.118,21.118,0,0,0,53.945,29ZM19.787,21.495v4.922a.208.208,0,0,1-.382.09L16.9,21.495H2.708V2.708H28.326V18.147a6,6,0,0,0-.854-.068,2.565,2.565,0,0,0-2.562,2.562v.854ZM2.708,30.034H14.663V33.45H2.708Zm11.956,22.2H2.708V48.821H14.663ZM4.416,47.113V35.158h8.539V47.113Zm10.247-4.27V39.428H29.137c.284.392.586.772.9,1.146v2.27Zm17.079,9.393v-11.1H48.821v11.1ZM52.237,29a19.417,19.417,0,0,1-3.025,10.428H31.286a20.439,20.439,0,0,1-4.668-13V20.641a.855.855,0,0,1,.854-.854,4.275,4.275,0,0,1,4.27,4.27V29.18H33.45V7.832a1.708,1.708,0,1,1,3.416,0V24.316h1.708V4.416a1.708,1.708,0,1,1,3.416,0V24.057H43.7V7.832a1.708,1.708,0,1,1,3.416,0V24.057h1.708V14.663a1.708,1.708,0,1,1,3.416,0Z" transform="translate(-1 -1)"/>
          <path id="Path_982734" data-name="Path 982734" d="M18.663,15.247a1.71,1.71,0,0,0,1.708,1.708h5.124A1.71,1.71,0,0,0,27.2,15.247V12.427L23.39,6.708H16.955V5H15.247V6.708H8.813L5,12.427v2.821a1.71,1.71,0,0,0,1.708,1.708h5.124a1.71,1.71,0,0,0,1.708-1.708V12.427L10.866,8.416h4.382V18.663H11.832v1.708h8.539V18.663H16.955V8.416h4.382l-2.674,4.011Zm-11.955,0V13.539h5.124v1.708Zm4.382-3.416H7.449L9.27,9.1Zm9.281,3.416V13.539h5.124v1.708ZM22.933,9.1l1.821,2.73h-3.64Z" transform="translate(-1.584 -1.584)"/>
        </g>
      </g>
    </g>
  </g>
</svg>
