<svg xmlns="http://www.w3.org/2000/svg" xmlns:xlink="http://www.w3.org/1999/xlink" width="108" height="108" viewBox="0 0 108 108">
  <defs>
    <filter id="Path_978624" x="0" y="0" width="108" height="108" filterUnits="userSpaceOnUse">
      <feOffset dy="3" input="SourceAlpha"/>
      <feGaussianBlur stdDeviation="3" result="blur"/>
      <feFlood flood-opacity="0.161"/>
      <feComposite operator="in" in2="blur"/>
      <feComposite in="SourceGraphic"/>
    </filter>
  </defs>
  <g id="Group_1164511" data-name="Group 1164511" transform="translate(-619 -401)">
    <g id="Group_1164444" data-name="Group 1164444">
      <g id="Group_1164275" data-name="Group 1164275" transform="translate(628 407)">
        <g transform="matrix(1, 0, 0, 1, -9, -6)" filter="url(#Path_978624)">
          <g id="Path_978624-2" data-name="Path 978624" transform="translate(9 6)" fill="#fcf9e5">
            <path d="M 45 88.5 C 39.12687683105469 88.5 33.43022537231445 87.35007476806641 28.06830024719238 85.08217620849609 C 22.88852500915527 82.89131164550781 18.23629951477051 79.75458526611328 14.2408504486084 75.75914764404297 C 10.24541282653809 71.76370239257812 7.108687400817871 67.11147308349609 4.917825222015381 61.93170166015625 C 2.649924993515015 56.56977462768555 1.5 50.87312316894531 1.5 45 C 1.5 39.12687683105469 2.649924993515015 33.43022537231445 4.917825222015381 28.06830024719238 C 7.108687400817871 22.88852500915527 10.24541282653809 18.23629951477051 14.2408504486084 14.2408504486084 C 18.23629951477051 10.24541282653809 22.88852500915527 7.108687400817871 28.06830024719238 4.917825222015381 C 33.43022537231445 2.649924993515015 39.12687683105469 1.5 45 1.5 C 50.87312316894531 1.5 56.56977462768555 2.649924993515015 61.93170166015625 4.917825222015381 C 67.11147308349609 7.108687400817871 71.76370239257812 10.24541282653809 75.75914764404297 14.2408504486084 C 79.75458526611328 18.23629951477051 82.89131164550781 22.88852500915527 85.08217620849609 28.06830024719238 C 87.35007476806641 33.43022537231445 88.5 39.12687683105469 88.5 45 C 88.5 50.87312316894531 87.35007476806641 56.56977462768555 85.08217620849609 61.93170166015625 C 82.89131164550781 67.11147308349609 79.75458526611328 71.76370239257812 75.75914764404297 75.75914764404297 C 71.76370239257812 79.75458526611328 67.11147308349609 82.89131164550781 61.93170166015625 85.08217620849609 C 56.56977462768555 87.35007476806641 50.87312316894531 88.5 45 88.5 Z" stroke="none"/>
            <path d="M 45 3 C 39.32871246337891 3 33.82865524291992 4.110054016113281 28.65262985229492 6.299339294433594 C 23.65165710449219 8.414573669433594 19.15968322753906 11.44334411621094 15.301513671875 15.301513671875 C 11.44334411621094 19.15968322753906 8.414573669433594 23.65165710449219 6.299339294433594 28.65262985229492 C 4.110054016113281 33.82865524291992 3 39.32871246337891 3 45 C 3 50.67128753662109 4.110054016113281 56.17134475708008 6.299339294433594 61.34737396240234 C 8.414573669433594 66.34834289550781 11.44334411621094 70.84031677246094 15.301513671875 74.698486328125 C 19.15968322753906 78.55665588378906 23.65165710449219 81.58542633056641 28.65262985229492 83.70066070556641 C 33.82865524291992 85.88994598388672 39.32871246337891 87 45 87 C 50.67128753662109 87 56.17134475708008 85.88994598388672 61.34737396240234 83.70066070556641 C 66.34834289550781 81.58542633056641 70.84031677246094 78.55665588378906 74.698486328125 74.698486328125 C 78.55665588378906 70.84031677246094 81.58542633056641 66.34834289550781 83.70066070556641 61.34737396240234 C 85.88994598388672 56.17134475708008 87 50.67128753662109 87 45 C 87 39.32871246337891 85.88994598388672 33.82865524291992 83.70066070556641 28.65262985229492 C 81.58542633056641 23.65165710449219 78.55665588378906 19.15968322753906 74.698486328125 15.301513671875 C 70.84031677246094 11.44334411621094 66.34834289550781 8.414573669433594 61.34737396240234 6.299339294433594 C 56.17134475708008 4.110054016113281 50.67128753662109 3 45 3 M 45 0 C 69.85281372070312 0 90 20.14718627929688 90 45 C 90 69.85281372070312 69.85281372070312 90 45 90 C 20.14718627929688 90 0 69.85281372070312 0 45 C 0 20.14718627929688 20.14718627929688 0 45 0 Z" stroke="none" fill="#86815c"/>
          </g>
        </g>
      </g>
      <g id="Filled_outline" data-name="Filled outline" transform="translate(623.824 401.824)">
        <path id="Path_982645" data-name="Path 982645" d="M178.337,57.491l-.356,3.2-.24,2.158H147.526l-.24-2.158-.356-3.2a16.6,16.6,0,0,1,1.241-8.373,16.619,16.619,0,0,0,1.322-7.369l-.187-3.734a13.345,13.345,0,1,1,26.657,0l-.188,3.734a16.62,16.62,0,0,0,1.322,7.369A16.6,16.6,0,0,1,178.337,57.491Z" transform="translate(-113.181 -6.925)" fill="#8f4d2e"/>
        <path id="Path_982646" data-name="Path 982646" d="M258.3,57.485l-.356,3.2h-12.11V48.819l2.158-4.316V35.869a11.882,11.882,0,0,0-8.733-11.451A13.36,13.36,0,0,1,255.926,38.01l-.187,3.734a16.619,16.619,0,0,0,1.322,7.369A16.6,16.6,0,0,1,258.3,57.485Z" transform="translate(-193.145 -6.92)" fill="#82462a"/>
        <path id="Path_982647" data-name="Path 982647" d="M221.381,224.633a1.51,1.51,0,0,1-1.511-1.511V216h-8.633v7.122a1.51,1.51,0,0,1-1.511,1.511H208v6.475h15.108v-6.475Z" transform="translate(-166.101 -173.022)" fill="#fec9a3"/>
        <path id="Path_982648" data-name="Path 982648" d="M236.967,221.4a5.921,5.921,0,0,0,3.666-1.323V216H232v4.072a5.921,5.921,0,0,0,3.666,1.323Z" transform="translate(-186.864 -173.022)" fill="#feb784"/>
        <path id="Path_982649" data-name="Path 982649" d="M211.424,86.475v5.4a9.712,9.712,0,1,1-19.424,0v-5.4a14.64,14.64,0,0,0,4.977-5.638L197.4,80l.612.511a26.944,26.944,0,0,0,13.416,5.963Z" transform="translate(-152.26 -55.367)" fill="#fec9a3"/>
        <path id="Path_982650" data-name="Path 982650" d="M285.612,121.676v5.4a9.716,9.716,0,0,1-7.857,9.535,11.828,11.828,0,0,0,3.54-8.456V120.69A26.909,26.909,0,0,0,285.612,121.676Z" transform="translate(-226.447 -90.568)" fill="#fec093"/>
        <path id="Path_982651" data-name="Path 982651" d="M224,312h10.791v7.554H224Z" transform="translate(-179.943 -256.073)" fill="#e0e0de"/>
        <path id="Path_982652" data-name="Path 982652" d="M126.747,308.013a3.275,3.275,0,0,1-3.638-2.173l-7.128-13.372a8.4,8.4,0,0,1-1.505,8.035v8.633H95.052V300.5a8.417,8.417,0,0,1-1.489-8.135l-7.244,13.471a3.274,3.274,0,1,1-6.217-2.056l7.924-19.722A6.473,6.473,0,0,1,94.033,280h4.256l6.475,11.87L111.239,280h4.24a6.48,6.48,0,0,1,6.016,4.083l7.833,19.7a3.276,3.276,0,0,1-2.58,4.229Z" transform="translate(-55.311 -228.389)" fill="#ec8c8c"/>
        <path id="Path_982653" data-name="Path 982653" d="M74.161,394.118,74.94,384h6.475v10.4a3.632,3.632,0,1,1-7.253-.279Z" transform="translate(-50.307 -318.361)" fill="#f59898"/>
        <path id="Path_982654" data-name="Path 982654" d="M34.093,266.9a2.1,2.1,0,0,0-1.368,2.975l.988,1.975H29.845a6.474,6.474,0,0,1-2.9-.684l-1.075-.538A1.295,1.295,0,0,0,24,271.783v3.046a2.158,2.158,0,0,0,1.193,1.93l1.756.878a6.474,6.474,0,0,0,2.9.683h8.184v-6.475l-1.478-3.694A2.1,2.1,0,0,0,34.093,266.9Z" transform="translate(-6.921 -216.998)" fill="#fec9a3"/>
        <path id="Path_982655" data-name="Path 982655" d="M80,352h6.475v4.317H80Z" transform="translate(-55.367 -290.677)" fill="#e0e0de"/>
        <path id="Path_982656" data-name="Path 982656" d="M225.97,311.681a3.275,3.275,0,0,1-3.638-2.173L215.2,296.136a8.4,8.4,0,0,1-1.505,8.035V312.8H194.63c8.907-5.816,16.421-13.2,22.729-28.564a6.464,6.464,0,0,1,3.359,3.511l7.833,19.7a3.276,3.276,0,0,1-2.58,4.229Z" transform="translate(-154.535 -232.057)" fill="#e07f7f"/>
        <path id="Path_982657" data-name="Path 982657" d="M306.791,353.266,296,351.108V336l10.791,2.158Z" transform="translate(-242.231 -276.835)" fill="#a36548"/>
        <path id="Path_982658" data-name="Path 982658" d="M408,353.266l10.791-2.158V336L408,338.158Z" transform="translate(-339.123 -276.835)" fill="#8f4d2e"/>
        <path id="Path_982659" data-name="Path 982659" d="M376,352h4.316v15.108H376Z" transform="translate(-311.44 -290.677)" fill="#95573a"/>
        <path id="Path_982660" data-name="Path 982660" d="M308.949,317.4a3.822,3.822,0,0,0-3.193-3.77L296,312v3.237l10.791,2.158h2.158a3.822,3.822,0,0,1,3.193-3.77L321.9,312v3.237L311.108,317.4Z" transform="translate(-242.231 -256.073)" fill="#d4bd81"/>
        <path id="Path_982661" data-name="Path 982661" d="M437.573,422.373l-4.316.719A1.079,1.079,0,0,1,432,422.029v-4.011a1.4,1.4,0,0,1,1.174-1.386l3.665-.611a1.4,1.4,0,0,1,1.636,1.386v3.9a1.079,1.079,0,0,1-.9,1.064Z" transform="translate(-359.886 -346.046)" fill="#fec9a3"/>
        <path id="Path_982662" data-name="Path 982662" d="M217.619,136a1.619,1.619,0,1,0,1.619,1.619A1.619,1.619,0,0,0,217.619,136Z" transform="translate(-173.022 -103.813)"/>
        <path id="Path_982663" data-name="Path 982663" d="M289.619,136a1.619,1.619,0,1,0,1.619,1.619A1.619,1.619,0,0,0,289.619,136Z" transform="translate(-235.31 -103.813)"/>
        <path id="Path_982664" data-name="Path 982664" d="M243.237,177.079A1.08,1.08,0,0,1,242.158,176H240a3.237,3.237,0,0,0,6.475,0h-2.158a1.08,1.08,0,0,1-1.079,1.079Z" transform="translate(-193.785 -138.418)"/>
        <path id="Path_982665" data-name="Path 982665" d="M80.365,55.1a1.081,1.081,0,0,0-.875-.241l-9.756,1.626a4.91,4.91,0,0,0-1.808.685L67.183,55.3a7.187,7.187,0,0,0-1.238-2.067l.282-2.552a18.694,18.694,0,0,0,.114-1.958A17.612,17.612,0,0,0,64.9,41.766a15.587,15.587,0,0,1-1.231-6.893l.184-3.735c.011-.235.023-.479.023-.72a14.425,14.425,0,1,0-28.832.721l.183,3.723c.011.278.021.541.021.8A15.383,15.383,0,0,1,34,41.766a17.633,17.633,0,0,0-1.322,8.919l.281,2.516a7.326,7.326,0,0,0-.855,1.236l-1.473-3.682a3.178,3.178,0,1,0-5.794,2.6l.207.413H22.924a5.423,5.423,0,0,1-2.413-.57l-1.075-.538A2.374,2.374,0,0,0,16,54.785v3.046a3.22,3.22,0,0,0,1.79,2.9l1.756.878a7.592,7.592,0,0,0,3.378.8h.63v3.2l-.775,10.077a4.711,4.711,0,0,0,4.7,5.072q.12,0,.238-.006c.069,0,.137.006.206.006A4.344,4.344,0,0,0,32,77.893l4.926-9.158a9.439,9.439,0,0,0,1.735,3.757v8.255H40.82V72.114a1.079,1.079,0,0,0-.25-.691,7.357,7.357,0,0,1,.941-10.351l-1.382-1.658a9.512,9.512,0,0,0-1.341,1.369,1.109,1.109,0,0,0-.112.135h0l-.019.034-.013.024a9.449,9.449,0,0,0-1.4,2.623l-5.052,9.394V59.881l1.533-3.818a5.172,5.172,0,0,1,1.136-1.742,5.462,5.462,0,0,1,3.87-1.631h3.611L48.505,64A1.079,1.079,0,0,0,50.4,64l2.29-4.2V74.272a1.079,1.079,0,0,0,.868,1.058l4.528.906v4.511h2.158V76.668l4.129.825c.027,0,.152.017.188.017H66.6l.207.386a4.372,4.372,0,0,0,4.1,2.851,4.063,4.063,0,0,0,.711-.059,4.374,4.374,0,0,0,3.378-2.818l2.87-.478a2.149,2.149,0,0,0,1.8-2.018l.216-.043a1.079,1.079,0,0,0,.868-1.058V55.927a1.079,1.079,0,0,0-.382-.823ZM44.674,52.467A2.592,2.592,0,0,0,46.215,50.1V46.8a10.8,10.8,0,0,0,6.475,0v3.3a2.592,2.592,0,0,0,1.542,2.366l-1.3,2.382h-6.96Zm4.779-7.331A8.643,8.643,0,0,1,40.82,36.5V31.672a15.764,15.764,0,0,0,4.67-5.347,27.952,27.952,0,0,0,12.6,5.7V36.5a8.643,8.643,0,0,1-8.633,8.633Zm14.584,9.2.02.021a5,5,0,0,1,1.12,1.728l.464,1.17a4.908,4.908,0,0,0-1.937-.769l-8.44-1.407,1.3-2.392h3.6A5.346,5.346,0,0,1,64.036,54.339Zm.631,5.9-4.91-.982-4.91-.982V57.2l8.5,1.416a2.733,2.733,0,0,1,2.074,1.627Zm5.423-1.626,8.5-1.417V58.28L73.513,59.3l-4.743.948h-.753a2.733,2.733,0,0,1,2.073-1.626ZM20.511,59.674,18.755,58.8a1.073,1.073,0,0,1-.6-.965V54.785a.216.216,0,0,1,.312-.193l1.075.538a7.592,7.592,0,0,0,3.378.8h3.867a1.079,1.079,0,0,0,.965-1.562l-.988-1.976a1.02,1.02,0,1,1,1.859-.835l1.4,3.5v5.188h-7.1A5.423,5.423,0,0,1,20.511,59.674ZM30.028,62.4V64.56H25.712V62.4Zm-5.1,13.438.7-9.122h4.4v9.318a2.554,2.554,0,0,1-2.368,2.543,1.1,1.1,0,0,0-.121.006c-.021,0-.042,0-.063,0a2.552,2.552,0,0,1-2.545-2.749ZM38.679,60.92a1.078,1.078,0,0,1,.069-.083l-.065.085Zm-3.731-9.368-.124-1.109a15.472,15.472,0,0,1,1.16-7.826,17.529,17.529,0,0,0,1.426-6.954c0-.3-.011-.6-.023-.895L37.2,31.032a12.267,12.267,0,1,1,24.519-.616c0,.19-.01.4-.02.616l-.183,3.731a17.753,17.753,0,0,0,1.4,7.849,15.466,15.466,0,0,1,1.262,6.105,16.531,16.531,0,0,1-.1,1.727l-.123,1.112a7.547,7.547,0,0,0-3.79-1.026H55.28a.437.437,0,0,1-.432-.432V45.843a10.8,10.8,0,0,0,5.4-9.339v-5.4a1.079,1.079,0,0,0-.927-1.068A25.8,25.8,0,0,1,46.44,24.315l-.613-.511a1.079,1.079,0,0,0-1.656.346l-.418.836a13.6,13.6,0,0,1-4.611,5.223,1.079,1.079,0,0,0-.481.9v5.4a10.8,10.8,0,0,0,5.4,9.339V50.1a.437.437,0,0,1-.432.432h-4.9a7.6,7.6,0,0,0-3.779,1.019Zm14.505,9.676-2.3-4.221h4.6Zm5.4-.746,8.633,1.727V75.114l-8.633-1.727ZM65.639,62.4H67.8V75.351H65.639Zm5.607,16.16a1.931,1.931,0,0,1-.341.027A2.211,2.211,0,0,1,69,77.5l.061-.009.024,0H69.1l2.218-.444a2.13,2.13,0,0,0,1.087.946A2.25,2.25,0,0,1,71.246,78.562Zm6.263-3.3-4.316.72V71.972a.325.325,0,0,1,.272-.321l3.665-.611a.354.354,0,0,1,.055,0,.326.326,0,0,1,.324.326v3.9Zm-.734-6.352-3.665.611a2.476,2.476,0,0,0-2.075,2.45V74.9l-1.079.216V62.208l8.633-1.727v8.832a2.477,2.477,0,0,0-1.813-.4Z" transform="translate(0 0)"/>
      </g>
    </g>
  </g>
</svg>
